M48
; DRILL file KiCad 10.0.1 date 2026-09-05T13:45:39
; FORMAT={-:-/ absolute / inch / decimal}
; #@! TF.CreationDate,2026-09-05T13:45:39+09:00
; #@! TF.GenerationSoftware,Kicad,Pcbnew,10.0.1
; #@! TF.FileFunction,Plated,1,4,PTH
FMAT,2
INCH
; #@! TA.AperFunction,Plated,PTH,ViaDrill
T1C0.0118
; #@! TA.AperFunction,Plated,PTH,ComponentDrill
T2C0.0295
; #@! TA.AperFunction,Plated,PTH,ComponentDrill
T3C0.0394
%
G90
G05
T1
X5.2835Y-3.5453
X5.3533Y-3.4203
X5.3907Y-3.5217
X5.4075Y-3.4163
X5.4449Y-3.3415
X5.4503Y-3.4129
X5.4734Y-3.1585
X5.4817Y-3.4105
X5.4931Y-3.3504
X5.508Y-3.1454
X5.5128Y-3.4055
X5.5138Y-2.6457
X5.5167Y-3.0591
X5.5522Y-3.4094
X5.5632Y-3.0897
X5.6024Y-3.5453
X5.6713Y-3.3376
X5.7121Y-1.9321
X5.7677Y-2.2972
X5.7727Y-2.245
X5.8192Y-3.3074
X5.8348Y-2.2975
X5.8504Y-2.1831
X5.8505Y-3.3044
X5.8573Y-3.6722
X5.8814Y-3.3106
X5.8823Y-2.8214
X5.8917Y-2.7913
X5.8952Y-1.9189
X5.9023Y-2.2607
X5.9075Y-2.187
X5.9077Y-2.3132
X5.9508Y-2.8031
X5.9511Y-2.3519
X5.9577Y-3.3789
X5.9667Y-2.2441
X5.9722Y-2.4862
X5.9902Y-2.4272
X6.0108Y-3.9852
X6.037Y-2.2209
X6.0586Y-2.8376
X6.0657Y-2.1709
X6.0684Y-1.9163
X6.0686Y-2.27
X6.1109Y-2.845
X6.1321Y-2.2423
X6.1553Y-2.274
X6.1703Y-2.8553
X6.1831Y-2.2165
X6.2165Y-2.8455
X6.2323Y-2.1831
X6.2342Y-2.2362
X6.2416Y-1.9144
X6.2707Y-3.0098
X6.2776Y-2.561
X6.2795Y-2.4843
X6.2933Y-2.1575
X6.3287Y-2.2134
X6.3455Y-3.6211
X6.3661Y-2.2283
X6.3858Y-3.4715
X6.3868Y-2.3376
X6.3898Y-2.2913
X6.4016Y-2.7441
X6.4114Y-2.1024
X6.4267Y-1.9138
X6.4321Y-3.1132
X6.4488Y-2.6594
X6.4803Y-2.2587
X6.4882Y-3.6594
X6.5108Y-2.4685
X6.5344Y-3.5266
X6.5743Y-1.9144
X6.5748Y-1.9675
X6.8248Y-3.1063
X6.8307Y-2.8022
X6.877Y-2.7254
X6.9941Y-2.8671
X7.0098Y-3.1083
X7.0413Y-2.6683
T2
X6.7077Y-3.9291
X6.7864Y-3.9291
T3
X5.0591Y-3.376
X5.061Y-2.5364
X5.061Y-2.7451
X5.061Y-2.9537
X5.061Y-3.1624
X5.2352Y-2.5433
X5.2352Y-2.7382
X5.2352Y-2.9596
X5.2352Y-3.1604
X5.3524Y-3.8504
X5.3524Y-3.9504
X5.4524Y-3.8504
X5.4524Y-3.9504
X5.4862Y-1.7264
X5.4862Y-1.8264
X5.5524Y-3.8504
X5.5524Y-3.9504
X5.5531Y-2.8339
X5.5531Y-2.9339
X5.5862Y-1.7264
X5.5862Y-1.8264
X5.6524Y-3.8504
X5.6524Y-3.9504
X5.6862Y-1.7264
X5.6862Y-1.8264
X5.6953Y-2.9339
X5.7524Y-3.8504
X5.7524Y-3.9504
X5.7862Y-1.7264
X5.7862Y-1.8264
X5.7953Y-2.9339
X5.8524Y-3.8504
X5.8524Y-3.9504
X5.8862Y-1.7264
X5.8862Y-1.8264
X5.8953Y-2.9339
X5.9862Y-1.7264
X5.9862Y-1.8264
X5.9953Y-2.9339
X6.0862Y-1.7264
X6.0862Y-1.8264
X6.0953Y-2.9339
X6.1862Y-1.7264
X6.1862Y-1.8264
X6.1953Y-2.9339
X6.2598Y-3.8504
X6.2862Y-1.7264
X6.2862Y-1.8264
X6.2953Y-2.9339
X6.3598Y-3.8504
X6.3862Y-1.7264
X6.3862Y-1.8264
X6.3953Y-2.9339
X6.4598Y-3.8504
X6.4862Y-1.7264
X6.4862Y-1.8264
X6.5862Y-1.7264
X6.5862Y-1.8264
X6.6862Y-1.7264
X6.6862Y-1.8264
M30
