%TF.GenerationSoftware,KiCad,Pcbnew,10.0.1*%
%TF.CreationDate,2026-09-05T18:15:58+09:00*%
%TF.ProjectId,eeg-frontend,6565672d-6672-46f6-9e74-656e642e6b69,rev?*%
%TF.SameCoordinates,Original*%
%TF.FileFunction,Copper,L1,Top*%
%TF.FilePolarity,Positive*%
%FSLAX46Y46*%
G04 Gerber Fmt 4.6, Leading zero omitted, Abs format (unit mm)*
G04 Created by KiCad (PCBNEW 10.0.1) date 2026-09-05 18:15:58*
%MOMM*%
%LPD*%
G01*
G04 APERTURE LIST*
G04 Aperture macros list*
%AMRoundRect*
0 Rectangle with rounded corners*
0 $1 Rounding radius*
0 $2 $3 $4 $5 $6 $7 $8 $9 X,Y pos of 4 corners*
0 Add a 4 corners polygon primitive as box body*
4,1,4,$2,$3,$4,$5,$6,$7,$8,$9,$2,$3,0*
0 Add four circle primitives for the rounded corners*
1,1,$1+$1,$2,$3*
1,1,$1+$1,$4,$5*
1,1,$1+$1,$6,$7*
1,1,$1+$1,$8,$9*
0 Add four rect primitives between the rounded corners*
20,1,$1+$1,$2,$3,$4,$5,0*
20,1,$1+$1,$4,$5,$6,$7,0*
20,1,$1+$1,$6,$7,$8,$9,0*
20,1,$1+$1,$8,$9,$2,$3,0*%
G04 Aperture macros list end*
%TA.AperFunction,ComponentPad*%
%ADD10R,1.700000X1.700000*%
%TD*%
%TA.AperFunction,ComponentPad*%
%ADD11C,1.700000*%
%TD*%
%TA.AperFunction,SMDPad,CuDef*%
%ADD12RoundRect,0.237500X0.237500X-0.250000X0.237500X0.250000X-0.237500X0.250000X-0.237500X-0.250000X0*%
%TD*%
%TA.AperFunction,ComponentPad*%
%ADD13C,2.000000*%
%TD*%
%TA.AperFunction,SMDPad,CuDef*%
%ADD14RoundRect,0.087500X0.425000X0.087500X-0.425000X0.087500X-0.425000X-0.087500X0.425000X-0.087500X0*%
%TD*%
%TA.AperFunction,SMDPad,CuDef*%
%ADD15R,0.430000X0.760000*%
%TD*%
%TA.AperFunction,SMDPad,CuDef*%
%ADD16RoundRect,0.150000X-0.150000X0.512500X-0.150000X-0.512500X0.150000X-0.512500X0.150000X0.512500X0*%
%TD*%
%TA.AperFunction,SMDPad,CuDef*%
%ADD17RoundRect,0.237500X0.237500X-0.300000X0.237500X0.300000X-0.237500X0.300000X-0.237500X-0.300000X0*%
%TD*%
%TA.AperFunction,SMDPad,CuDef*%
%ADD18C,2.000000*%
%TD*%
%TA.AperFunction,SMDPad,CuDef*%
%ADD19RoundRect,0.250000X-0.475000X0.337500X-0.475000X-0.337500X0.475000X-0.337500X0.475000X0.337500X0*%
%TD*%
%TA.AperFunction,SMDPad,CuDef*%
%ADD20RoundRect,0.237500X-0.300000X-0.237500X0.300000X-0.237500X0.300000X0.237500X-0.300000X0.237500X0*%
%TD*%
%TA.AperFunction,SMDPad,CuDef*%
%ADD21RoundRect,0.150000X0.150000X-0.512500X0.150000X0.512500X-0.150000X0.512500X-0.150000X-0.512500X0*%
%TD*%
%TA.AperFunction,SMDPad,CuDef*%
%ADD22RoundRect,0.150000X0.587500X0.150000X-0.587500X0.150000X-0.587500X-0.150000X0.587500X-0.150000X0*%
%TD*%
%TA.AperFunction,SMDPad,CuDef*%
%ADD23RoundRect,0.250000X-0.337500X-0.475000X0.337500X-0.475000X0.337500X0.475000X-0.337500X0.475000X0*%
%TD*%
%TA.AperFunction,SMDPad,CuDef*%
%ADD24RoundRect,0.075000X-0.075000X0.662500X-0.075000X-0.662500X0.075000X-0.662500X0.075000X0.662500X0*%
%TD*%
%TA.AperFunction,SMDPad,CuDef*%
%ADD25RoundRect,0.075000X-0.662500X0.075000X-0.662500X-0.075000X0.662500X-0.075000X0.662500X0.075000X0*%
%TD*%
%TA.AperFunction,SMDPad,CuDef*%
%ADD26RoundRect,0.250000X0.337500X0.475000X-0.337500X0.475000X-0.337500X-0.475000X0.337500X-0.475000X0*%
%TD*%
%TA.AperFunction,SMDPad,CuDef*%
%ADD27RoundRect,0.250000X0.475000X-0.337500X0.475000X0.337500X-0.475000X0.337500X-0.475000X-0.337500X0*%
%TD*%
%TA.AperFunction,SMDPad,CuDef*%
%ADD28RoundRect,0.237500X-0.237500X0.300000X-0.237500X-0.300000X0.237500X-0.300000X0.237500X0.300000X0*%
%TD*%
%TA.AperFunction,SMDPad,CuDef*%
%ADD29RoundRect,0.250000X0.450000X-0.350000X0.450000X0.350000X-0.450000X0.350000X-0.450000X-0.350000X0*%
%TD*%
%TA.AperFunction,SMDPad,CuDef*%
%ADD30RoundRect,0.250000X0.412500X0.650000X-0.412500X0.650000X-0.412500X-0.650000X0.412500X-0.650000X0*%
%TD*%
%TA.AperFunction,SMDPad,CuDef*%
%ADD31RoundRect,0.237500X0.300000X0.237500X-0.300000X0.237500X-0.300000X-0.237500X0.300000X-0.237500X0*%
%TD*%
%TA.AperFunction,ComponentPad*%
%ADD32RoundRect,0.250000X-0.350000X-0.625000X0.350000X-0.625000X0.350000X0.625000X-0.350000X0.625000X0*%
%TD*%
%TA.AperFunction,ComponentPad*%
%ADD33O,1.200000X1.750000*%
%TD*%
%TA.AperFunction,ViaPad*%
%ADD34C,0.600000*%
%TD*%
%TA.AperFunction,Conductor*%
%ADD35C,0.200000*%
%TD*%
G04 APERTURE END LIST*
D10*
%TO.P,J1,1,Pin_1_1*%
%TO.N,AVDD*%
X169830000Y-43850000D03*
D11*
%TO.P,J1,2,Pin_2_2*%
X169830000Y-46390000D03*
%TO.P,J1,3,Pin_3_3*%
%TO.N,AGND*%
X167290000Y-43850000D03*
%TO.P,J1,4,Pin_4_4*%
X167290000Y-46390000D03*
%TO.P,J1,5,Pin_5_5*%
%TO.N,BIAS*%
X164750000Y-43850000D03*
%TO.P,J1,6,Pin_6_6*%
X164750000Y-46390000D03*
%TO.P,J1,7,Pin_7_7*%
%TO.N,8N*%
X162210000Y-43850000D03*
%TO.P,J1,8,Pin_8_8*%
%TO.N,8P*%
X162210000Y-46390000D03*
%TO.P,J1,9,Pin_9_9*%
%TO.N,7N*%
X159670000Y-43850000D03*
%TO.P,J1,10,Pin_10_10*%
%TO.N,7P*%
X159670000Y-46390000D03*
%TO.P,J1,11,Pin_11_11*%
%TO.N,6N*%
X157130000Y-43850000D03*
%TO.P,J1,12,Pin_12_12*%
%TO.N,6P*%
X157130000Y-46390000D03*
%TO.P,J1,13,Pin_13_13*%
%TO.N,5N*%
X154590000Y-43850000D03*
%TO.P,J1,14,Pin_14_14*%
%TO.N,5P*%
X154590000Y-46390000D03*
%TO.P,J1,15,Pin_15_15*%
%TO.N,4N*%
X152050000Y-43850000D03*
%TO.P,J1,16,Pin_16_16*%
%TO.N,4P*%
X152050000Y-46390000D03*
%TO.P,J1,17,Pin_17_17*%
%TO.N,3N*%
X149510000Y-43850000D03*
%TO.P,J1,18,Pin_18_18*%
%TO.N,3P*%
X149510000Y-46390000D03*
%TO.P,J1,19,Pin_19_19*%
%TO.N,2N*%
X146970000Y-43850000D03*
%TO.P,J1,20,Pin_20_20*%
%TO.N,2P*%
X146970000Y-46390000D03*
%TO.P,J1,21,Pin_21_21*%
%TO.N,1N*%
X144430000Y-43850000D03*
%TO.P,J1,22,Pin_22_22*%
%TO.N,1P*%
X144430000Y-46390000D03*
%TO.P,J1,23,Pin_23_23*%
%TO.N,SRB2*%
X141890000Y-43850000D03*
%TO.P,J1,24,Pin_24_24*%
%TO.N,SRB1*%
X141890000Y-46390000D03*
%TO.P,J1,25,Pin_25_25*%
%TO.N,AVSS*%
X139350000Y-43850000D03*
%TO.P,J1,26,Pin_26_26*%
X139350000Y-46390000D03*
%TD*%
D12*
%TO.P,R9,1*%
%TO.N,PMOD_MOSI*%
X137762500Y-93187500D03*
%TO.P,R9,2*%
%TO.N,ADS_DIN*%
X137762500Y-91362500D03*
%TD*%
D13*
%TO.P,TP19,1,1_1*%
%TO.N,ADS_CS*%
X128550000Y-69725000D03*
%TD*%
D14*
%TO.P,U7,1,IO1_1*%
%TO.N,1P*%
X145087500Y-50400000D03*
%TO.P,U7,2,IO2_2*%
%TO.N,SRB2*%
X145087500Y-49750000D03*
%TO.P,U7,3,GND_3*%
%TO.N,AGND*%
X145087500Y-49100000D03*
%TO.P,U7,4,IO3_4*%
%TO.N,AVSS*%
X143412500Y-49100000D03*
%TO.P,U7,5,IO4_5*%
%TO.N,SRB1*%
X143412500Y-49750000D03*
%TO.P,U7,6,NC_6*%
%TO.N,unconnected-(U7-NC-Pad6)*%
X143412500Y-50400000D03*
%TD*%
D12*
%TO.P,R17,1*%
%TO.N,DVDD*%
X150275000Y-93187500D03*
%TO.P,R17,2*%
%TO.N,ADS_RESET*%
X150275000Y-91362500D03*
%TD*%
D15*
%TO.P,RN5,1,common_1*%
%TO.N,BIAS_DRV*%
X163600000Y-53460000D03*
%TO.P,RN5,2,R1_2*%
%TO.N,BIAS*%
X163600000Y-51940000D03*
%TO.P,RN5,3,common_3*%
%TO.N,AGND*%
X162800000Y-53460000D03*
%TO.P,RN5,4,R2_4*%
X162800000Y-51940000D03*
%TO.P,RN5,5,common_5*%
%TO.N,IN8N*%
X162000000Y-53460000D03*
%TO.P,RN5,6,R3_6*%
%TO.N,8N*%
X162000000Y-51940000D03*
%TO.P,RN5,7,common_7*%
%TO.N,IN8P*%
X161200000Y-53460000D03*
%TO.P,RN5,8,R4_8*%
%TO.N,8P*%
X161200000Y-51940000D03*
%TD*%
D16*
%TO.P,U4,1,VIN_1*%
%TO.N,VIN_SYS*%
X159975000Y-89137500D03*
%TO.P,U4,2,GND_2*%
%TO.N,AGND*%
X159025000Y-89137500D03*
%TO.P,U4,3,\u002ASHDN_3*%
%TO.N,3V ENABLE*%
X158075000Y-89137500D03*
%TO.P,U4,4,PWRGD_4*%
%TO.N,unconnected-(U4-PWRGD-Pad4)*%
X158075000Y-91412500D03*
%TO.P,U4,5,VOUT_5*%
%TO.N,DVDD*%
X159975000Y-91412500D03*
%TD*%
D10*
%TO.P,J2,1,Pin_1_1*%
%TO.N,PMOD_SCLK*%
X135950000Y-97800000D03*
D11*
%TO.P,J2,2,Pin_2_2*%
%TO.N,PMOD_MOSI*%
X138490000Y-97800000D03*
%TO.P,J2,3,Pin_3_3*%
%TO.N,PMOD_MISO*%
X141030000Y-97800000D03*
%TO.P,J2,4,Pin_4_4*%
%TO.N,PMOD_CS*%
X143570000Y-97800000D03*
%TO.P,J2,5,Pin_5_5*%
%TO.N,AGND*%
X146110000Y-97800000D03*
%TO.P,J2,6,Pin_6_6*%
%TO.N,PMOD_3V3*%
X148650000Y-97800000D03*
%TO.P,J2,7,Pin_7_7*%
%TO.N,PMOD_DRDY*%
X135950000Y-100340000D03*
%TO.P,J2,8,Pin_8_8*%
%TO.N,PMOD_START*%
X138490000Y-100340000D03*
%TO.P,J2,9,Pin_9_9*%
%TO.N,PMOD_RESET*%
X141030000Y-100340000D03*
%TO.P,J2,10,Pin_10_10*%
%TO.N,PMOD_CS2*%
X143570000Y-100340000D03*
%TO.P,J2,11,Pin_11_11*%
%TO.N,AGND*%
X146110000Y-100340000D03*
%TO.P,J2,12,Pin_12_12*%
%TO.N,PMOD_3V3*%
X148650000Y-100340000D03*
%TD*%
D10*
%TO.P,J4,1,Pin_1_1*%
%TO.N,AGND*%
X141050000Y-74520000D03*
D11*
%TO.P,J4,2,Pin_2_2*%
%TO.N,BIAS_INV*%
X141050000Y-71980000D03*
%TD*%
D13*
%TO.P,TP18,1,1_1*%
%TO.N,ADS_DIN*%
X132975000Y-64600000D03*
%TD*%
%TO.P,TP25,1,1_1*%
%TO.N,ADS_CS2*%
X128500000Y-85750000D03*
%TD*%
D17*
%TO.P,C17,1*%
%TO.N,Net-(U1-VREFP)*%
X148450000Y-62712500D03*
%TO.P,C17,2*%
%TO.N,AVSS*%
X148450000Y-60987500D03*
%TD*%
D13*
%TO.P,TP20,1,1_1*%
%TO.N,ADS_START*%
X132975000Y-69550000D03*
%TD*%
%TO.P,TP23,1,1_1*%
%TO.N,PMOD_DRDY*%
X128550000Y-80325000D03*
%TD*%
D18*
%TO.P,TP8,1,1_1*%
%TO.N,AVDD*%
X176225000Y-66250000D03*
%TD*%
D19*
%TO.P,C20,1*%
%TO.N,PMOD_3V3*%
X154400000Y-97737500D03*
%TO.P,C20,2*%
%TO.N,AGND*%
X154400000Y-99812500D03*
%TD*%
D20*
%TO.P,C9,1*%
%TO.N,DVDD*%
X174787500Y-78950000D03*
%TO.P,C9,2*%
%TO.N,AGND*%
X176512500Y-78950000D03*
%TD*%
D12*
%TO.P,R18,1*%
%TO.N,PMOD_SCLK*%
X134187500Y-93187500D03*
%TO.P,R18,2*%
%TO.N,ADS_SCLK*%
X134187500Y-91362500D03*
%TD*%
D14*
%TO.P,U2,1,IO1_1*%
%TO.N,AGND*%
X166987500Y-49950000D03*
%TO.P,U2,2,IO2_2*%
%TO.N,AVDD*%
X166987500Y-49300000D03*
%TO.P,U2,3,GND_3*%
%TO.N,AGND*%
X166987500Y-48650000D03*
%TO.P,U2,4,IO3_4*%
%TO.N,BIAS*%
X165312500Y-48650000D03*
%TO.P,U2,5,IO4_5*%
%TO.N,unconnected-(U2-IO4-Pad5)*%
X165312500Y-49300000D03*
%TO.P,U2,6,NC_6*%
%TO.N,unconnected-(U2-NC-Pad6)*%
X165312500Y-49950000D03*
%TD*%
D10*
%TO.P,J3,1,Pin_1_1*%
%TO.N,DVDD*%
X162440000Y-74520000D03*
D11*
%TO.P,J3,2,Pin_2_2*%
%TO.N,AGND*%
X159900000Y-74520000D03*
%TO.P,J3,3,Pin_3_3*%
%TO.N,PMOD_MISO*%
X157360000Y-74520000D03*
%TO.P,J3,4,Pin_4_4*%
%TO.N,PMOD_SCLK*%
X154820000Y-74520000D03*
%TO.P,J3,5,Pin_5_5*%
%TO.N,PMOD_RESET*%
X152280000Y-74520000D03*
%TO.P,J3,6,Pin_6_6*%
%TO.N,ADS_CLK_OUT*%
X149740000Y-74520000D03*
%TO.P,J3,7,Pin_7_7*%
%TO.N,PMOD_MOSI*%
X147200000Y-74520000D03*
%TO.P,J3,8,Pin_8_8*%
%TO.N,PMOD_CS2*%
X144660000Y-74520000D03*
%TD*%
D12*
%TO.P,R14,1*%
%TO.N,PMOD_MISO*%
X141337500Y-93187500D03*
%TO.P,R14,2*%
%TO.N,ADS_DOUT*%
X141337500Y-91362500D03*
%TD*%
D21*
%TO.P,U5,1,GND_1*%
%TO.N,AGND*%
X168275000Y-79012500D03*
%TO.P,U5,2,IN_2*%
%TO.N,-DVDD*%
X169225000Y-79012500D03*
%TO.P,U5,3,EN_3*%
X170175000Y-79012500D03*
%TO.P,U5,4,NR_4*%
%TO.N,Net-(U5-NR)*%
X170175000Y-76737500D03*
%TO.P,U5,5,OUT_5*%
%TO.N,AVSS*%
X168275000Y-76737500D03*
%TD*%
D15*
%TO.P,RN1,1,common_1*%
%TO.N,IN1N*%
X146600000Y-53460000D03*
%TO.P,RN1,2,R1_2*%
%TO.N,1N*%
X146600000Y-51940000D03*
%TO.P,RN1,3,common_3*%
%TO.N,IN1P*%
X145800000Y-53460000D03*
%TO.P,RN1,4,R2_4*%
%TO.N,1P*%
X145800000Y-51940000D03*
%TO.P,RN1,5,common_5*%
%TO.N,SRB2*%
X145000000Y-53460000D03*
%TO.P,RN1,6,R3_6*%
X145000000Y-51940000D03*
%TO.P,RN1,7,common_7*%
%TO.N,SRB1*%
X144200000Y-53460000D03*
%TO.P,RN1,8,R4_8*%
X144200000Y-51940000D03*
%TD*%
D20*
%TO.P,C10,1*%
%TO.N,AVDD*%
X176262500Y-69425000D03*
%TO.P,C10,2*%
%TO.N,AGND*%
X177987500Y-69425000D03*
%TD*%
D22*
%TO.P,Q1,1,G_1*%
%TO.N,AGND*%
X176587500Y-96075000D03*
%TO.P,Q1,2,S_2*%
%TO.N,VIN_BAT*%
X176587500Y-94175000D03*
%TO.P,Q1,3,D_3*%
%TO.N,Net-(J5-Pin_1)*%
X174712500Y-95125000D03*
%TD*%
D23*
%TO.P,C4,1*%
%TO.N,-DVDD*%
X164787500Y-81100000D03*
%TO.P,C4,2*%
%TO.N,AGND*%
X166862500Y-81100000D03*
%TD*%
D20*
%TO.P,C2,1*%
%TO.N,VIN_SYS*%
X163037500Y-91750000D03*
%TO.P,C2,2*%
%TO.N,AGND*%
X164762500Y-91750000D03*
%TD*%
D24*
%TO.P,U1,1,IN8N_1*%
%TO.N,IN8N*%
X159750000Y-59137500D03*
%TO.P,U1,2,IN8P_2*%
%TO.N,IN8P*%
X159250000Y-59137500D03*
%TO.P,U1,3,IN7N_3*%
%TO.N,IN7N*%
X158750000Y-59137500D03*
%TO.P,U1,4,IN7P_4*%
%TO.N,IN7P*%
X158250000Y-59137500D03*
%TO.P,U1,5,IN6N_5*%
%TO.N,IN6N*%
X157750000Y-59137500D03*
%TO.P,U1,6,IN6P_6*%
%TO.N,IN6P*%
X157250000Y-59137500D03*
%TO.P,U1,7,IN5N_7*%
%TO.N,IN5N*%
X156750000Y-59137500D03*
%TO.P,U1,8,IN5P_8*%
%TO.N,IN5P*%
X156250000Y-59137500D03*
%TO.P,U1,9,IN4N_9*%
%TO.N,IN4N*%
X155750000Y-59137500D03*
%TO.P,U1,10,IN4P_10*%
%TO.N,IN4P*%
X155250000Y-59137500D03*
%TO.P,U1,11,IN3N_11*%
%TO.N,IN3N*%
X154750000Y-59137500D03*
%TO.P,U1,12,IN3P_12*%
%TO.N,IN3P*%
X154250000Y-59137500D03*
%TO.P,U1,13,IN2N_13*%
%TO.N,IN2N*%
X153750000Y-59137500D03*
%TO.P,U1,14,IN2P_14*%
%TO.N,IN2P*%
X153250000Y-59137500D03*
%TO.P,U1,15,IN1N_15*%
%TO.N,IN1N*%
X152750000Y-59137500D03*
%TO.P,U1,16,IN1P_16*%
%TO.N,IN1P*%
X152250000Y-59137500D03*
D25*
%TO.P,U1,17,SRB1_17*%
%TO.N,SRB1*%
X150337500Y-61050000D03*
%TO.P,U1,18,SRB2_18*%
%TO.N,SRB2*%
X150337500Y-61550000D03*
%TO.P,U1,19,AVDD_19*%
%TO.N,AVDD*%
X150337500Y-62050000D03*
%TO.P,U1,20,AVSS_20*%
%TO.N,AVSS*%
X150337500Y-62550000D03*
%TO.P,U1,21,AVDD_21*%
%TO.N,AVDD*%
X150337500Y-63050000D03*
%TO.P,U1,22,AVDD_22*%
X150337500Y-63550000D03*
%TO.P,U1,23,AVSS_23*%
%TO.N,AVSS*%
X150337500Y-64050000D03*
%TO.P,U1,24,VREFP_24*%
%TO.N,Net-(U1-VREFP)*%
X150337500Y-64550000D03*
%TO.P,U1,25,VREFN_25*%
%TO.N,AVSS*%
X150337500Y-65050000D03*
%TO.P,U1,26,VCAP4_26*%
%TO.N,Net-(U1-VCAP4)*%
X150337500Y-65550000D03*
%TO.P,U1,27,NC_27*%
%TO.N,unconnected-(U1-NC-Pad27)*%
X150337500Y-66050000D03*
%TO.P,U1,28,VCAP1_28*%
%TO.N,Net-(U1-VCAP1)*%
X150337500Y-66550000D03*
%TO.P,U1,29,NC_29*%
%TO.N,unconnected-(U1-NC-Pad29)*%
X150337500Y-67050000D03*
%TO.P,U1,30,VCAP2_30*%
%TO.N,Net-(U1-VCAP2)*%
X150337500Y-67550000D03*
%TO.P,U1,31,RESV1_31*%
%TO.N,AGND*%
X150337500Y-68050000D03*
%TO.P,U1,32,AVSS_32*%
%TO.N,AVSS*%
X150337500Y-68550000D03*
D24*
%TO.P,U1,33,DGND_33*%
%TO.N,AGND*%
X152250000Y-70462500D03*
%TO.P,U1,34,DIN_34*%
%TO.N,ADS_DIN*%
X152750000Y-70462500D03*
%TO.P,U1,35,~{PWDN}_35*%
%TO.N,ADS_PWDN*%
X153250000Y-70462500D03*
%TO.P,U1,36,~{RESET}_36*%
%TO.N,ADS_RESET*%
X153750000Y-70462500D03*
%TO.P,U1,37,CLK_37*%
%TO.N,ADS_CLK_OUT*%
X154250000Y-70462500D03*
%TO.P,U1,38,START_38*%
%TO.N,ADS_START*%
X154750000Y-70462500D03*
%TO.P,U1,39,~{CS}_39*%
%TO.N,ADS_CS*%
X155250000Y-70462500D03*
%TO.P,U1,40,SCLK_40*%
%TO.N,ADS_SCLK*%
X155750000Y-70462500D03*
%TO.P,U1,41,DAISY_IN_41*%
%TO.N,AGND*%
X156250000Y-70462500D03*
%TO.P,U1,42,GPIO1_42*%
%TO.N,unconnected-(U1-GPIO1-Pad42)*%
X156750000Y-70462500D03*
%TO.P,U1,43,DOUT_43*%
%TO.N,ADS_DOUT*%
X157250000Y-70462500D03*
%TO.P,U1,44,GPIO2_44*%
%TO.N,unconnected-(U1-GPIO2-Pad44)*%
X157750000Y-70462500D03*
%TO.P,U1,45,GPIO3_45*%
%TO.N,unconnected-(U1-GPIO3-Pad45)*%
X158250000Y-70462500D03*
%TO.P,U1,46,GPIO4_46*%
%TO.N,unconnected-(U1-GPIO4-Pad46)*%
X158750000Y-70462500D03*
%TO.P,U1,47,~{DRDY}_47*%
%TO.N,ADS_DRDY*%
X159250000Y-70462500D03*
%TO.P,U1,48,DVDD_48*%
%TO.N,DVDD*%
X159750000Y-70462500D03*
D25*
%TO.P,U1,49,DGND_49*%
%TO.N,AGND*%
X161662500Y-68550000D03*
%TO.P,U1,50,DVDD_50*%
%TO.N,DVDD*%
X161662500Y-68050000D03*
%TO.P,U1,51,DGND_51*%
%TO.N,AGND*%
X161662500Y-67550000D03*
%TO.P,U1,52,CLKSEL_52*%
%TO.N,DVDD*%
X161662500Y-67050000D03*
%TO.P,U1,53,AVSS1_53*%
%TO.N,AVSS*%
X161662500Y-66550000D03*
%TO.P,U1,54,AVDD1_54*%
%TO.N,AVDD*%
X161662500Y-66050000D03*
%TO.P,U1,55,VCAP3_55*%
%TO.N,Net-(U1-VCAP3)*%
X161662500Y-65550000D03*
%TO.P,U1,56,AVDD_56*%
%TO.N,AVDD*%
X161662500Y-65050000D03*
%TO.P,U1,57,AVSS_57*%
%TO.N,AVSS*%
X161662500Y-64550000D03*
%TO.P,U1,58,AVSS_58*%
X161662500Y-64050000D03*
%TO.P,U1,59,AVDD_59*%
%TO.N,AVDD*%
X161662500Y-63550000D03*
%TO.P,U1,60,BIASREF_60*%
%TO.N,AGND*%
X161662500Y-63050000D03*
%TO.P,U1,61,BIASINV_61*%
%TO.N,BIAS_INV*%
X161662500Y-62550000D03*
%TO.P,U1,62,BIASIN_62*%
%TO.N,Net-(U1-BIASIN)*%
X161662500Y-62050000D03*
%TO.P,U1,63,BIASOUT_63*%
X161662500Y-61550000D03*
%TO.P,U1,64,RESERVED_64*%
%TO.N,AGND*%
X161662500Y-61050000D03*
%TD*%
D14*
%TO.P,U9,1,IO1_1*%
%TO.N,5P*%
X154137500Y-50000000D03*
%TO.P,U9,2,IO2_2*%
%TO.N,4N*%
X154137500Y-49350000D03*
%TO.P,U9,3,GND_3*%
%TO.N,AGND*%
X154137500Y-48700000D03*
%TO.P,U9,4,IO3_4*%
%TO.N,3N*%
X152462500Y-48700000D03*
%TO.P,U9,5,IO4_5*%
%TO.N,4P*%
X152462500Y-49350000D03*
%TO.P,U9,6,NC_6*%
%TO.N,unconnected-(U9-NC-Pad6)*%
X152462500Y-50000000D03*
%TD*%
D12*
%TO.P,R13,1*%
%TO.N,PMOD_RESET*%
X143125000Y-93187500D03*
%TO.P,R13,2*%
%TO.N,ADS_RESET*%
X143125000Y-91362500D03*
%TD*%
D20*
%TO.P,C8,1*%
%TO.N,AVSS*%
X171787500Y-74075000D03*
%TO.P,C8,2*%
%TO.N,AGND*%
X173512500Y-74075000D03*
%TD*%
D12*
%TO.P,R10,1*%
%TO.N,PMOD_CS*%
X144912500Y-93187500D03*
%TO.P,R10,2*%
%TO.N,ADS_CS*%
X144912500Y-91362500D03*
%TD*%
D13*
%TO.P,TP21,1,1_1*%
%TO.N,ADS_PWDN*%
X132975000Y-75175000D03*
%TD*%
D15*
%TO.P,RN2,1,common_1*%
%TO.N,IN3N*%
X150550000Y-53410000D03*
%TO.P,RN2,2,R1_2*%
%TO.N,3N*%
X150550000Y-51890000D03*
%TO.P,RN2,3,common_3*%
%TO.N,IN3P*%
X149750000Y-53410000D03*
%TO.P,RN2,4,R2_4*%
%TO.N,3P*%
X149750000Y-51890000D03*
%TO.P,RN2,5,common_5*%
%TO.N,IN2N*%
X148950000Y-53410000D03*
%TO.P,RN2,6,R3_6*%
%TO.N,2N*%
X148950000Y-51890000D03*
%TO.P,RN2,7,common_7*%
%TO.N,IN2P*%
X148150000Y-53410000D03*
%TO.P,RN2,8,R4_8*%
%TO.N,2P*%
X148150000Y-51890000D03*
%TD*%
D26*
%TO.P,C18,1*%
%TO.N,Net-(U1-VREFP)*%
X146787500Y-62700000D03*
%TO.P,C18,2*%
%TO.N,AVSS*%
X144712500Y-62700000D03*
%TD*%
D27*
%TO.P,C3,1*%
%TO.N,Net-(U3-CAP+)*%
X171200000Y-85487500D03*
%TO.P,C3,2*%
%TO.N,Net-(U3-CAP-)*%
X171200000Y-83412500D03*
%TD*%
D16*
%TO.P,U3,1,GND_1*%
%TO.N,AGND*%
X166600000Y-83637500D03*
%TO.P,U3,2,OUT_2*%
%TO.N,-DVDD*%
X165650000Y-83637500D03*
%TO.P,U3,3,CAP-_3*%
%TO.N,Net-(U3-CAP-)*%
X164700000Y-83637500D03*
%TO.P,U3,4,SD_N_4*%
%TO.N,DVDD*%
X164700000Y-85912500D03*
%TO.P,U3,5,V+_5*%
X165650000Y-85912500D03*
%TO.P,U3,6,CAP+_6*%
%TO.N,Net-(U3-CAP+)*%
X166600000Y-85912500D03*
%TD*%
D28*
%TO.P,C21,1*%
%TO.N,PMOD_3V3*%
X152450000Y-97712500D03*
%TO.P,C21,2*%
%TO.N,AGND*%
X152450000Y-99437500D03*
%TD*%
D29*
%TO.P,R1,1*%
%TO.N,Net-(U1-BIASIN)*%
X163700000Y-61700000D03*
%TO.P,R1,2*%
%TO.N,BIAS_DRV*%
X163700000Y-59700000D03*
%TD*%
D18*
%TO.P,TP7,1,1_1*%
%TO.N,AVSS*%
X169125000Y-72325000D03*
%TD*%
D12*
%TO.P,R12,1*%
%TO.N,PMOD_CS2*%
X146700000Y-93187500D03*
%TO.P,R12,2*%
%TO.N,ADS_CS2*%
X146700000Y-91362500D03*
%TD*%
D13*
%TO.P,TP17,1,1_1*%
%TO.N,ADS_SCLK*%
X128550000Y-64425000D03*
%TD*%
D18*
%TO.P,TP9,1,1_1*%
%TO.N,DVDD*%
X168825000Y-87950000D03*
%TD*%
D12*
%TO.P,R11,1*%
%TO.N,PMOD_START*%
X139550000Y-93187500D03*
%TO.P,R11,2*%
%TO.N,ADS_START*%
X139550000Y-91362500D03*
%TD*%
D21*
%TO.P,U6,1,IN_1*%
%TO.N,DVDD*%
X176037500Y-76837500D03*
%TO.P,U6,2,GND_2*%
%TO.N,AGND*%
X176987500Y-76837500D03*
%TO.P,U6,3,EN_3*%
%TO.N,DVDD*%
X177937500Y-76837500D03*
%TO.P,U6,4,NC_4*%
%TO.N,unconnected-(U6-NC-Pad4)*%
X177937500Y-74562500D03*
%TO.P,U6,5,OUT_5*%
%TO.N,AVDD*%
X176037500Y-74562500D03*
%TD*%
D20*
%TO.P,C11,1*%
%TO.N,AVDD*%
X176212500Y-71175000D03*
%TO.P,C11,2*%
%TO.N,AGND*%
X177937500Y-71175000D03*
%TD*%
D10*
%TO.P,JP1,1,A_1*%
%TO.N,PMOD_3V3*%
X159000000Y-97800000D03*
D11*
%TO.P,JP1,2,C_2*%
%TO.N,VIN_SYS*%
X161540000Y-97800000D03*
%TO.P,JP1,3,B_3*%
%TO.N,VIN_BAT*%
X164080000Y-97800000D03*
%TD*%
D15*
%TO.P,RN4,1,common_1*%
%TO.N,IN7N*%
X158700000Y-53460000D03*
%TO.P,RN4,2,R1_2*%
%TO.N,7N*%
X158700000Y-51940000D03*
%TO.P,RN4,3,common_3*%
%TO.N,IN7P*%
X157900000Y-53460000D03*
%TO.P,RN4,4,R2_4*%
%TO.N,7P*%
X157900000Y-51940000D03*
%TO.P,RN4,5,common_5*%
%TO.N,IN6N*%
X157100000Y-53460000D03*
%TO.P,RN4,6,R3_6*%
%TO.N,6N*%
X157100000Y-51940000D03*
%TO.P,RN4,7,common_7*%
%TO.N,IN6P*%
X156300000Y-53460000D03*
%TO.P,RN4,8,R4_8*%
%TO.N,6P*%
X156300000Y-51940000D03*
%TD*%
D14*
%TO.P,U11,1,IO1_1*%
%TO.N,unconnected-(U11-IO1-Pad1)*%
X163237500Y-49935000D03*
%TO.P,U11,2,IO2_2*%
%TO.N,8N*%
X163237500Y-49285000D03*
%TO.P,U11,3,GND_3*%
%TO.N,AGND*%
X163237500Y-48635000D03*
%TO.P,U11,4,IO3_4*%
%TO.N,7N*%
X161562500Y-48635000D03*
%TO.P,U11,5,IO4_5*%
%TO.N,8P*%
X161562500Y-49285000D03*
%TO.P,U11,6,NC_6*%
%TO.N,unconnected-(U11-NC-Pad6)*%
X161562500Y-49935000D03*
%TD*%
D13*
%TO.P,TP22,1,1_1*%
%TO.N,ADS_RESET*%
X128550000Y-75025000D03*
%TD*%
D18*
%TO.P,TP11,1,1_1*%
%TO.N,VIN_SYS*%
X168850000Y-91675000D03*
%TD*%
D30*
%TO.P,C12,1*%
%TO.N,Net-(U1-VCAP1)*%
X148162500Y-66500000D03*
%TO.P,C12,2*%
%TO.N,AVSS*%
X145037500Y-66500000D03*
%TD*%
D31*
%TO.P,C16,1*%
%TO.N,Net-(U1-VCAP2)*%
X148262500Y-68450000D03*
%TO.P,C16,2*%
%TO.N,AVSS*%
X146537500Y-68450000D03*
%TD*%
D20*
%TO.P,C5,1*%
%TO.N,-DVDD*%
X169212500Y-81400000D03*
%TO.P,C5,2*%
%TO.N,AGND*%
X170937500Y-81400000D03*
%TD*%
D17*
%TO.P,C14,1*%
%TO.N,Net-(U1-VCAP3)*%
X163600000Y-66012500D03*
%TO.P,C14,2*%
%TO.N,AVSS*%
X163600000Y-64287500D03*
%TD*%
D14*
%TO.P,U8,1,IO1_1*%
%TO.N,3P*%
X149737500Y-50065000D03*
%TO.P,U8,2,IO2_2*%
%TO.N,2N*%
X149737500Y-49415000D03*
%TO.P,U8,3,GND_3*%
%TO.N,AGND*%
X149737500Y-48765000D03*
%TO.P,U8,4,IO3_4*%
%TO.N,1N*%
X148062500Y-48765000D03*
%TO.P,U8,5,IO4_5*%
%TO.N,2P*%
X148062500Y-49415000D03*
%TO.P,U8,6,NC_6*%
%TO.N,unconnected-(U8-NC-Pad6)*%
X148062500Y-50065000D03*
%TD*%
D17*
%TO.P,C19,1*%
%TO.N,Net-(U1-BIASIN)*%
X165500000Y-61662500D03*
%TO.P,C19,2*%
%TO.N,BIAS_DRV*%
X165500000Y-59937500D03*
%TD*%
D31*
%TO.P,C13,1*%
%TO.N,Net-(U1-VCAP4)*%
X148312500Y-64550000D03*
%TO.P,C13,2*%
%TO.N,AVSS*%
X146587500Y-64550000D03*
%TD*%
D15*
%TO.P,RN3,1,common_1*%
%TO.N,IN5N*%
X154650000Y-53460000D03*
%TO.P,RN3,2,R1_2*%
%TO.N,5N*%
X154650000Y-51940000D03*
%TO.P,RN3,3,common_3*%
%TO.N,IN5P*%
X153850000Y-53460000D03*
%TO.P,RN3,4,R2_4*%
%TO.N,5P*%
X153850000Y-51940000D03*
%TO.P,RN3,5,common_5*%
%TO.N,IN4N*%
X153050000Y-53460000D03*
%TO.P,RN3,6,R3_6*%
%TO.N,4N*%
X153050000Y-51940000D03*
%TO.P,RN3,7,common_7*%
%TO.N,IN4P*%
X152250000Y-53460000D03*
%TO.P,RN3,8,R4_8*%
%TO.N,4P*%
X152250000Y-51940000D03*
%TD*%
D18*
%TO.P,TP10,1,1_1*%
%TO.N,3V ENABLE*%
X154275000Y-89150000D03*
%TD*%
D14*
%TO.P,U10,1,IO1_1*%
%TO.N,7P*%
X158537500Y-49950000D03*
%TO.P,U10,2,IO2_2*%
%TO.N,6N*%
X158537500Y-49300000D03*
%TO.P,U10,3,GND_3*%
%TO.N,AGND*%
X158537500Y-48650000D03*
%TO.P,U10,4,IO3_4*%
%TO.N,5N*%
X156862500Y-48650000D03*
%TO.P,U10,5,IO4_5*%
%TO.N,6P*%
X156862500Y-49300000D03*
%TO.P,U10,6,NC_6*%
%TO.N,unconnected-(U10-NC-Pad6)*%
X156862500Y-49950000D03*
%TD*%
D12*
%TO.P,R16,1*%
%TO.N,DVDD*%
X148487500Y-93187500D03*
%TO.P,R16,2*%
%TO.N,ADS_PWDN*%
X148487500Y-91362500D03*
%TD*%
D32*
%TO.P,J5,1,Pin_1_1*%
%TO.N,Net-(J5-Pin_1)*%
X170375000Y-99800000D03*
D33*
%TO.P,J5,2,Pin_2_2*%
%TO.N,AGND*%
X172375000Y-99800000D03*
%TD*%
D20*
%TO.P,C7,1*%
%TO.N,AVSS*%
X171787500Y-75725000D03*
%TO.P,C7,2*%
%TO.N,AGND*%
X173512500Y-75725000D03*
%TD*%
%TO.P,C1,1*%
%TO.N,DVDD*%
X163012500Y-89550000D03*
%TO.P,C1,2*%
%TO.N,AGND*%
X164737500Y-89550000D03*
%TD*%
D31*
%TO.P,C6,1*%
%TO.N,Net-(U5-NR)*%
X166412500Y-77825000D03*
%TO.P,C6,2*%
%TO.N,AGND*%
X164687500Y-77825000D03*
%TD*%
D17*
%TO.P,C15,1*%
%TO.N,Net-(U1-VCAP3)*%
X165200000Y-66012500D03*
%TO.P,C15,2*%
%TO.N,AVSS*%
X165200000Y-64287500D03*
%TD*%
D18*
%TO.P,TP13,1,1_1*%
%TO.N,VIN_BAT*%
X181625000Y-92550000D03*
%TD*%
D13*
%TO.P,TP24,1,1_1*%
%TO.N,PMOD_MISO*%
X132975000Y-80275000D03*
%TD*%
D12*
%TO.P,R15,1*%
%TO.N,PMOD_DRDY*%
X135975000Y-93187500D03*
%TO.P,R15,2*%
%TO.N,ADS_DRDY*%
X135975000Y-91362500D03*
%TD*%
D34*
%TO.N,AVDD*%
X159500000Y-63100000D03*
X151694062Y-63150000D03*
X163800000Y-67550000D03*
X152150000Y-61650000D03*
X174675000Y-69225000D03*
X177650000Y-72825000D03*
%TO.N,AGND*%
X173500000Y-71175000D03*
X159275000Y-76450000D03*
X151157629Y-59737500D03*
X167000000Y-49975000D03*
X162850000Y-53400000D03*
X154137500Y-48675000D03*
X162224265Y-59374265D03*
X149737500Y-48740000D03*
X145087500Y-49075000D03*
X178850000Y-67775000D03*
X163375000Y-79075000D03*
X163237500Y-48610000D03*
X158537500Y-48625000D03*
X152675000Y-101225000D03*
X162600000Y-69700000D03*
X164800000Y-92950000D03*
X146500000Y-58350000D03*
X166987500Y-48625000D03*
X165975000Y-89575000D03*
X148600000Y-55450000D03*
X151150000Y-71200000D03*
X178050000Y-78950000D03*
%TO.N,SRB2*%
X148205001Y-58356471D03*
%TO.N,SRB1*%
X146625735Y-57024265D03*
%TO.N,AVSS*%
X140050000Y-67200000D03*
X159450000Y-65050000D03*
%TO.N,PMOD_MOSI*%
X141304265Y-78479265D03*
X136925000Y-89450000D03*
%TO.N,ADS_DIN*%
X137350000Y-86775000D03*
X149650000Y-70900000D03*
%TO.N,ADS_CS*%
X156726472Y-72525000D03*
X139525000Y-85100000D03*
X141025000Y-86600000D03*
%TO.N,DVDD*%
X161175000Y-91975000D03*
X162200000Y-88175000D03*
X148775000Y-93275000D03*
X173350000Y-78900000D03*
%TO.N,ADS_RESET*%
X140025000Y-86500000D03*
X138300000Y-84875000D03*
X140125000Y-77700000D03*
%TO.N,BIAS_DRV*%
X164600000Y-57370000D03*
%TO.N,IN8N*%
X162300000Y-58200000D03*
%TO.N,IN8P*%
X161700000Y-56600000D03*
%TO.N,PMOD_SCLK*%
X148603926Y-83930554D03*
%TO.N,PMOD_MISO*%
X149388235Y-84088235D03*
%TO.N,PMOD_RESET*%
X147807612Y-84007263D03*
X142300000Y-90050000D03*
%TO.N,BIAS_INV*%
X165375000Y-62700000D03*
%TO.N,ADS_START*%
X138437440Y-86687185D03*
X155218090Y-72263643D03*
X139025000Y-80225000D03*
%TO.N,ADS_SCLK*%
X134200000Y-90050000D03*
X157900000Y-72275000D03*
%TO.N,ADS_CLK_OUT*%
X153887308Y-72075000D03*
%TO.N,ADS_DOUT*%
X139235204Y-86627386D03*
X144050000Y-84775000D03*
%TO.N,IN1N*%
X149919189Y-57420660D03*
%TO.N,IN1P*%
X150055001Y-58756471D03*
%TO.N,IN7N*%
X160750000Y-56220000D03*
%TO.N,IN7P*%
X159850039Y-54799934D03*
%TO.N,IN6N*%
X158347963Y-56800037D03*
%TO.N,IN6P*%
X158300000Y-55450000D03*
%TO.N,IN5N*%
X157050000Y-56300000D03*
%TO.N,IN5P*%
X156345202Y-57760001D03*
%TO.N,IN4N*%
X155755000Y-56953764D03*
%TO.N,IN4P*%
X154068137Y-55140000D03*
%TO.N,IN3N*%
X153339006Y-56411009D03*
%TO.N,IN3P*%
X154142892Y-57657108D03*
%TO.N,IN2N*%
X151554998Y-57000000D03*
%TO.N,IN2P*%
X150050000Y-55550000D03*
%TO.N,ADS_PWDN*%
X139902377Y-79893425D03*
X149411380Y-71663586D03*
%TO.N,ADS_DRDY*%
X135975000Y-86875000D03*
X151325000Y-85825000D03*
%TD*%
%TO.N,AVDD*%
D35*
X176212500Y-71175000D02*
X176212500Y-69475000D01*
X176262500Y-69425000D02*
X176262500Y-69362500D01*
X151294062Y-63550000D02*
X151694062Y-63150000D01*
X160892590Y-66050000D02*
X161662500Y-66050000D01*
X174875000Y-69425000D02*
X174675000Y-69225000D01*
X161662500Y-65050000D02*
X160892590Y-65050000D01*
X177650000Y-72825000D02*
X176037500Y-74437500D01*
X176262500Y-69425000D02*
X174875000Y-69425000D01*
X176212500Y-69475000D02*
X176262500Y-69425000D01*
X150337500Y-62050000D02*
X151750000Y-62050000D01*
X160625000Y-65317590D02*
X160625000Y-65782410D01*
X176037500Y-74437500D02*
X176037500Y-74562500D01*
X169830000Y-46969999D02*
X169830000Y-46390000D01*
X151594062Y-63050000D02*
X151694062Y-63150000D01*
X159950000Y-63550000D02*
X159500000Y-63100000D01*
X162825000Y-66325000D02*
X162825000Y-66575000D01*
X160892590Y-65050000D02*
X160625000Y-65317590D01*
X166987500Y-49300000D02*
X167499999Y-49300000D01*
X176037500Y-71350000D02*
X176212500Y-71175000D01*
X176262500Y-69362500D02*
X176225000Y-69325000D01*
X150337500Y-63550000D02*
X151294062Y-63550000D01*
X167499999Y-49300000D02*
X169830000Y-46969999D01*
X162825000Y-66575000D02*
X163800000Y-67550000D01*
X176225000Y-69325000D02*
X176225000Y-66250000D01*
X161662500Y-63550000D02*
X159950000Y-63550000D01*
X162550000Y-66050000D02*
X162825000Y-66325000D01*
X176037500Y-74562500D02*
X176037500Y-71350000D01*
X160625000Y-65782410D02*
X160892590Y-66050000D01*
X150337500Y-63050000D02*
X151594062Y-63050000D01*
X161662500Y-66050000D02*
X162550000Y-66050000D01*
X151750000Y-62050000D02*
X152150000Y-61650000D01*
%TO.N,AGND*%
X152825000Y-99812500D02*
X152450000Y-99437500D01*
X152250000Y-69692590D02*
X152517590Y-69425000D01*
X166987500Y-48650000D02*
X166987500Y-48625000D01*
X177987500Y-68637500D02*
X178850000Y-67775000D01*
X161662500Y-61050000D02*
X161662500Y-59936030D01*
X152450000Y-101000000D02*
X152675000Y-101225000D01*
X161662500Y-59936030D02*
X162224265Y-59374265D01*
X150337500Y-68050000D02*
X151107410Y-68050000D01*
X163375000Y-79075000D02*
X163437500Y-79075000D01*
X176587500Y-96075000D02*
X172862500Y-99800000D01*
X173512500Y-74075000D02*
X173512500Y-71187500D01*
X164762500Y-92912500D02*
X164800000Y-92950000D01*
X172862500Y-99800000D02*
X172375000Y-99800000D01*
X176987500Y-76837500D02*
X176987500Y-76175001D01*
X156250000Y-69692590D02*
X156250000Y-70462500D01*
X162700000Y-67817590D02*
X162700000Y-68282410D01*
X158675000Y-83775000D02*
X163375000Y-79075000D01*
X176537499Y-75725000D02*
X173512500Y-75725000D01*
X152517590Y-69425000D02*
X155982410Y-69425000D01*
X166862500Y-79850000D02*
X166025000Y-79012500D01*
X177937500Y-69475000D02*
X177987500Y-69425000D01*
X166600000Y-83637500D02*
X168700000Y-83637500D01*
X159900000Y-75825000D02*
X159275000Y-76450000D01*
X160625000Y-62782410D02*
X160625000Y-61317590D01*
X153917500Y-48675000D02*
X154137500Y-48675000D01*
X176987500Y-76175001D02*
X176537499Y-75725000D01*
X165875000Y-79012500D02*
X164687500Y-77825000D01*
X166987500Y-49950000D02*
X166987500Y-49962500D01*
X151107410Y-68050000D02*
X152250000Y-69192590D01*
X152450000Y-99437500D02*
X152450000Y-101000000D01*
X163237500Y-48635000D02*
X163237500Y-48610000D01*
X159900000Y-74520000D02*
X159900000Y-75825000D01*
X173512500Y-75725000D02*
X173512500Y-74075000D01*
X151887500Y-70462500D02*
X151150000Y-71200000D01*
X162800000Y-53450000D02*
X162850000Y-53400000D01*
X161662500Y-68550000D02*
X161662500Y-68762500D01*
X164762500Y-91750000D02*
X164762500Y-92912500D01*
X161662500Y-67550000D02*
X162432410Y-67550000D01*
X160625000Y-61317590D02*
X160892590Y-61050000D01*
X168275000Y-79012500D02*
X166025000Y-79012500D01*
X162800000Y-53460000D02*
X162800000Y-53450000D01*
X166862500Y-81100000D02*
X166862500Y-79850000D01*
X162432410Y-68550000D02*
X161662500Y-68550000D01*
X164737500Y-89550000D02*
X165950000Y-89550000D01*
X158537500Y-48625000D02*
X158537500Y-48650000D01*
X158675000Y-88787500D02*
X158675000Y-83775000D01*
X170937500Y-81400000D02*
X174062500Y-81400000D01*
X154400000Y-99812500D02*
X152825000Y-99812500D01*
X152250000Y-70462500D02*
X152250000Y-69692590D01*
X166025000Y-79012500D02*
X165875000Y-79012500D01*
X166987500Y-49962500D02*
X167000000Y-49975000D01*
X161662500Y-63050000D02*
X160892590Y-63050000D01*
X162432410Y-67550000D02*
X162700000Y-67817590D01*
X145087500Y-49075000D02*
X145112500Y-49100000D01*
X153877500Y-48635000D02*
X153917500Y-48675000D01*
X168700000Y-83637500D02*
X170937500Y-81400000D01*
X160892590Y-61050000D02*
X161662500Y-61050000D01*
X155982410Y-69425000D02*
X156250000Y-69692590D01*
X152250000Y-70462500D02*
X151887500Y-70462500D01*
X165950000Y-89550000D02*
X165975000Y-89575000D01*
X162800000Y-51940000D02*
X162800000Y-53460000D01*
X177987500Y-69425000D02*
X177987500Y-68637500D01*
X174062500Y-81400000D02*
X176512500Y-78950000D01*
X173512500Y-71187500D02*
X173500000Y-71175000D01*
X162700000Y-68282410D02*
X162432410Y-68550000D01*
X161662500Y-68762500D02*
X162600000Y-69700000D01*
X149737500Y-48740000D02*
X149737501Y-48740001D01*
X177937500Y-71175000D02*
X177937500Y-69475000D01*
X163437500Y-79075000D02*
X164687500Y-77825000D01*
X160892590Y-63050000D02*
X160625000Y-62782410D01*
X176512500Y-78950000D02*
X178050000Y-78950000D01*
X159025000Y-89137500D02*
X158675000Y-88787500D01*
X152250000Y-69192590D02*
X152250000Y-70462500D01*
%TO.N,BIAS*%
X165312500Y-48650000D02*
X164800001Y-48650000D01*
X164800001Y-48650000D02*
X164450000Y-49000001D01*
X164750000Y-43850000D02*
X164750000Y-46390000D01*
X164750000Y-46390000D02*
X164750000Y-48087500D01*
X164450000Y-51090000D02*
X163600000Y-51940000D01*
X164750000Y-48087500D02*
X165312500Y-48650000D01*
X164450000Y-49000001D02*
X164450000Y-51090000D01*
%TO.N,8N*%
X163525000Y-49285000D02*
X163087500Y-49285000D01*
X162210000Y-43850000D02*
X163550000Y-45190000D01*
X162000000Y-51685000D02*
X162000000Y-51940000D01*
X163650000Y-47650000D02*
X163650000Y-47984568D01*
X163650000Y-47984568D02*
X164050000Y-48384568D01*
X162425000Y-49585001D02*
X162425000Y-51260000D01*
X164050000Y-48384568D02*
X164050000Y-48984999D01*
X162725001Y-49285000D02*
X162425000Y-49585001D01*
X163550000Y-45190000D02*
X163550000Y-47550000D01*
X163237500Y-49285000D02*
X162725001Y-49285000D01*
X163749999Y-49285000D02*
X163237500Y-49285000D01*
X163550000Y-47550000D02*
X163650000Y-47650000D01*
X162425000Y-51260000D02*
X162000000Y-51685000D01*
X164050000Y-48984999D02*
X163749999Y-49285000D01*
%TO.N,8P*%
X162074999Y-49285000D02*
X161562500Y-49285000D01*
X162375000Y-48384568D02*
X162375000Y-48885432D01*
X161149568Y-49285000D02*
X160750000Y-49684568D01*
X162200000Y-46400000D02*
X162200000Y-48209568D01*
X162200000Y-49060432D02*
X162200000Y-49159999D01*
X162200000Y-49159999D02*
X162074999Y-49285000D01*
X160750000Y-51490000D02*
X161200000Y-51940000D01*
X162200000Y-48209568D02*
X162375000Y-48384568D01*
X160750000Y-49684568D02*
X160750000Y-51490000D01*
X162375000Y-48885432D02*
X162200000Y-49060432D01*
X162210000Y-46390000D02*
X162200000Y-46400000D01*
X161562500Y-49285000D02*
X161149568Y-49285000D01*
%TO.N,7N*%
X160900001Y-48635000D02*
X160400000Y-49135001D01*
X160820000Y-45000000D02*
X160820000Y-48042500D01*
X160325000Y-49550304D02*
X160150000Y-49725304D01*
X160400000Y-49135001D02*
X160325000Y-49135001D01*
X158700000Y-51200000D02*
X158700000Y-51940000D01*
X159550000Y-50350000D02*
X158700000Y-51200000D01*
X160820000Y-48042500D02*
X161412500Y-48635000D01*
X159631371Y-50314645D02*
X159631371Y-50350000D01*
X159670000Y-43850000D02*
X160820000Y-45000000D01*
X160090685Y-49855330D02*
X159631371Y-50314645D01*
X160325000Y-49135001D02*
X160325000Y-49550304D01*
X161412500Y-48635000D02*
X160900001Y-48635000D01*
X159631371Y-50350000D02*
X159550000Y-50350000D01*
%TO.N,7P*%
X159670000Y-46390000D02*
X159670000Y-47754314D01*
X159065686Y-49950000D02*
X158537500Y-49950000D01*
X158537500Y-49950000D02*
X158787500Y-50200000D01*
X159670000Y-47754314D02*
X159750000Y-47834314D01*
X159750000Y-47834314D02*
X159750000Y-49265686D01*
X158787500Y-50472500D02*
X157900000Y-51360000D01*
X157900000Y-51360000D02*
X157900000Y-51940000D01*
X158787500Y-50200000D02*
X158787500Y-50472500D01*
X159750000Y-49265686D02*
X159065686Y-49950000D01*
%TO.N,6N*%
X159307323Y-48356891D02*
X159350000Y-48399568D01*
X159350000Y-48399568D02*
X159350000Y-49100000D01*
X158280000Y-46680000D02*
X159200000Y-47600000D01*
X159307323Y-47992678D02*
X159307323Y-48250000D01*
X157100000Y-51360000D02*
X157100000Y-51940000D01*
X157900000Y-49300000D02*
X157700000Y-49500000D01*
X159214645Y-47900000D02*
X159307323Y-47992678D01*
X157130000Y-43850000D02*
X158350000Y-45070000D01*
X158350000Y-46610000D02*
X158280000Y-46680000D01*
X158350000Y-45070000D02*
X158350000Y-46610000D01*
X158537500Y-49300000D02*
X157900000Y-49300000D01*
X157700000Y-49500000D02*
X157700000Y-50760000D01*
X159200000Y-47900000D02*
X159214645Y-47900000D01*
X159307323Y-47992677D02*
X159307323Y-48356891D01*
X159350000Y-49100000D02*
X159150000Y-49300000D01*
X159200000Y-47600000D02*
X159200000Y-47900000D01*
X159150000Y-49300000D02*
X158537500Y-49300000D01*
X157700000Y-50760000D02*
X157100000Y-51360000D01*
%TO.N,6P*%
X157675000Y-48900432D02*
X157275432Y-49300000D01*
X156133882Y-49615686D02*
X156100000Y-49615686D01*
X155550000Y-50165686D02*
X155550000Y-51190000D01*
X156687500Y-49475000D02*
X156274568Y-49475000D01*
X156100000Y-49615686D02*
X155550000Y-50165686D01*
X157130000Y-46390000D02*
X157675000Y-46935000D01*
X157675000Y-46935000D02*
X157675000Y-48900432D01*
X156862500Y-49300000D02*
X156687500Y-49475000D01*
X157275432Y-49300000D02*
X156862500Y-49300000D01*
X155550000Y-51190000D02*
X156300000Y-51940000D01*
X156274568Y-49475000D02*
X156133882Y-49615686D01*
%TO.N,5N*%
X154650000Y-50650000D02*
X154650000Y-51940000D01*
X155700000Y-49331803D02*
X155700000Y-49450000D01*
X154950000Y-50200000D02*
X154950000Y-50410000D01*
X156862500Y-48096814D02*
X156862500Y-48346814D01*
X155700000Y-49450000D02*
X154950000Y-50200000D01*
X155900000Y-48650000D02*
X155749999Y-48800001D01*
X156862500Y-48346814D02*
X156862500Y-48650000D01*
X155740000Y-46974314D02*
X156862500Y-48096814D01*
X155749999Y-49281804D02*
X155700000Y-49331803D01*
X155749999Y-48800001D02*
X155749999Y-49281804D01*
X155740000Y-45000000D02*
X155740000Y-46974314D01*
X156862500Y-48650000D02*
X155900000Y-48650000D01*
X154890000Y-50410000D02*
X154650000Y-50650000D01*
X154590000Y-43850000D02*
X155740000Y-45000000D01*
%TO.N,5P*%
X154590000Y-46390000D02*
X154590000Y-47523883D01*
X154725432Y-49825000D02*
X154375000Y-49825000D01*
X154200000Y-50000000D02*
X154137500Y-50000000D01*
X153850000Y-50287500D02*
X153850000Y-51940000D01*
X154137500Y-50000000D02*
X153850000Y-50287500D01*
X154950000Y-49516117D02*
X154950000Y-49600432D01*
X154375000Y-49825000D02*
X154200000Y-50000000D01*
X155350000Y-48283883D02*
X155350000Y-49116118D01*
X155350000Y-49116118D02*
X154950000Y-49516117D01*
X154590000Y-47523883D02*
X155350000Y-48283883D01*
X154950000Y-49600432D02*
X154725432Y-49825000D01*
%TO.N,4N*%
X154950000Y-48449568D02*
X154950000Y-48950432D01*
X154386029Y-48075000D02*
X154536029Y-48225000D01*
X153440000Y-45240000D02*
X153440000Y-46866346D01*
X153305000Y-51155000D02*
X153050000Y-51410000D01*
X153440000Y-46866346D02*
X154113654Y-47540000D01*
X154950000Y-48950432D02*
X154725432Y-49175000D01*
X154725432Y-49175000D02*
X154486029Y-49175000D01*
X154536029Y-48225000D02*
X154725432Y-48225000D01*
X154386029Y-49275000D02*
X154113654Y-49275000D01*
X153674568Y-49350000D02*
X153305000Y-49719568D01*
X154486029Y-49175000D02*
X154386029Y-49275000D01*
X153305000Y-49719568D02*
X153305000Y-51155000D01*
X154137500Y-49350000D02*
X153674568Y-49350000D01*
X154113654Y-49326154D02*
X154137500Y-49350000D01*
X154113654Y-49275000D02*
X154113654Y-49326154D01*
X154113654Y-47540000D02*
X154113654Y-48075000D01*
X152050000Y-43850000D02*
X153440000Y-45240000D01*
X154725432Y-48225000D02*
X154950000Y-48449568D01*
X154113654Y-48075000D02*
X154386029Y-48075000D01*
X153050000Y-51410000D02*
X153050000Y-51940000D01*
%TO.N,4P*%
X152050000Y-46390000D02*
X153275000Y-47615000D01*
X151700000Y-50300432D02*
X151700000Y-50434315D01*
X152462500Y-49350000D02*
X152287500Y-49525000D01*
X151650000Y-50250432D02*
X151700000Y-50300432D01*
X151650000Y-49749568D02*
X151650000Y-50250432D01*
X152575432Y-49350000D02*
X152674999Y-49350000D01*
X153275000Y-47615000D02*
X153275000Y-49049999D01*
X152974999Y-49350000D02*
X152462500Y-49350000D01*
X152050000Y-47250000D02*
X152050000Y-46390000D01*
X151700000Y-49699568D02*
X151650000Y-49749568D01*
X152250000Y-50984315D02*
X152250000Y-51940000D01*
X151874568Y-49525000D02*
X151700000Y-49699568D01*
X152287500Y-49525000D02*
X151874568Y-49525000D01*
X153275000Y-49049999D02*
X152974999Y-49350000D01*
X151700000Y-50434315D02*
X152250000Y-50984315D01*
%TO.N,3N*%
X152049568Y-48700000D02*
X152462500Y-48700000D01*
X152100000Y-48094314D02*
X152100000Y-48100000D01*
X152162500Y-48700000D02*
X152162500Y-48156814D01*
X150850000Y-46844314D02*
X152100000Y-48094314D01*
X151250000Y-51190000D02*
X151250000Y-49550000D01*
X152162500Y-48156814D02*
X152100000Y-48094314D01*
X151650000Y-49150000D02*
X151650000Y-49099568D01*
X149510000Y-43850000D02*
X150850000Y-45190000D01*
X150850000Y-45190000D02*
X150850000Y-46844314D01*
X151650000Y-49099568D02*
X152049568Y-48700000D01*
X150550000Y-51890000D02*
X151250000Y-51190000D01*
X151250000Y-49550000D02*
X151650000Y-49150000D01*
%TO.N,3P*%
X150400432Y-49815000D02*
X150325432Y-49890000D01*
X150249999Y-49890000D02*
X150249999Y-50065000D01*
X150950000Y-49280685D02*
X150415684Y-49815000D01*
X149510000Y-46390000D02*
X149830000Y-46390000D01*
X149555685Y-46390000D02*
X150950000Y-47784315D01*
X150950000Y-47784315D02*
X150950000Y-49280685D01*
X150249999Y-50065000D02*
X149737500Y-50065000D01*
X150325432Y-49890000D02*
X150249999Y-49890000D01*
X149750000Y-51890000D02*
X149750000Y-50077500D01*
X150415684Y-49815000D02*
X150400432Y-49815000D01*
X149510000Y-46390000D02*
X149555685Y-46390000D01*
X149750000Y-50077500D02*
X149737500Y-50065000D01*
%TO.N,2N*%
X148385000Y-45924009D02*
X148350000Y-45959009D01*
X148950000Y-51310000D02*
X148925000Y-51285000D01*
X150550000Y-47950000D02*
X150550000Y-49114999D01*
X149590000Y-47540000D02*
X149900000Y-47850000D01*
X148350000Y-45959009D02*
X148350000Y-46820991D01*
X150450000Y-47850000D02*
X150550000Y-47950000D01*
X146970000Y-43850000D02*
X148500000Y-45380000D01*
X148925000Y-51285000D02*
X148925000Y-49715001D01*
X150550000Y-49114999D02*
X150249999Y-49415000D01*
X149225001Y-49415000D02*
X149737500Y-49415000D01*
X150249999Y-49415000D02*
X149737500Y-49415000D01*
X148350000Y-46820991D02*
X148500000Y-46970991D01*
X148500000Y-47006346D02*
X149033654Y-47540000D01*
X148500000Y-45380000D02*
X148500000Y-45809009D01*
X148925000Y-49715001D02*
X149225001Y-49415000D01*
X149900000Y-47850000D02*
X150450000Y-47850000D01*
X148950000Y-51310000D02*
X148950000Y-51890000D01*
X149033654Y-47540000D02*
X149590000Y-47540000D01*
%TO.N,2P*%
X146970000Y-46390000D02*
X148875000Y-48295000D01*
X148875000Y-49114999D02*
X148574999Y-49415000D01*
X148574999Y-49415000D02*
X148062500Y-49415000D01*
X147632057Y-49415000D02*
X148062500Y-49415000D01*
X147250000Y-49797057D02*
X147632057Y-49415000D01*
X147250000Y-50990000D02*
X147250000Y-49797057D01*
X148150000Y-51890000D02*
X147250000Y-50990000D01*
X146970000Y-46390000D02*
X147265432Y-46390000D01*
X148875000Y-48295000D02*
X148875000Y-49114999D01*
%TO.N,1N*%
X146500000Y-49981371D02*
X147018630Y-49462741D01*
X146500000Y-51840000D02*
X146500000Y-49981371D01*
X147015686Y-48184315D02*
X147015686Y-48215686D01*
X145580000Y-45000000D02*
X145580000Y-46779999D01*
X146750001Y-47950000D02*
X146781371Y-47950000D01*
X146600000Y-51940000D02*
X146500000Y-51840000D01*
X148047500Y-48750000D02*
X148062500Y-48765000D01*
X145580000Y-46779999D02*
X146750001Y-47950000D01*
X147068630Y-48750000D02*
X147083630Y-48765000D01*
X147018630Y-49462741D02*
X147018630Y-48750000D01*
X147015686Y-48215686D02*
X147018630Y-48218630D01*
X147018630Y-48218636D02*
X147018634Y-48218640D01*
X147083630Y-48765000D02*
X148062500Y-48765000D01*
X147018630Y-48218630D02*
X147018630Y-48218636D01*
X144430000Y-43850000D02*
X145580000Y-45000000D01*
X147018630Y-48365916D02*
X147018630Y-48750000D01*
X147018630Y-48750000D02*
X147068630Y-48750000D01*
X147018634Y-48218640D02*
X147018630Y-48365916D01*
X146781371Y-47950000D02*
X147015686Y-48184315D01*
%TO.N,1P*%
X146037500Y-51702500D02*
X145800000Y-51940000D01*
X146615686Y-48350000D02*
X146600001Y-48365685D01*
X144430000Y-46630000D02*
X144647158Y-46412843D01*
X146037500Y-50400000D02*
X145087500Y-50400000D01*
X146618630Y-49297055D02*
X145950000Y-49965685D01*
X144647158Y-46412843D02*
X146584315Y-48350000D01*
X145950000Y-50312500D02*
X146037500Y-50400000D01*
X145950000Y-49965685D02*
X145950000Y-50312500D01*
X144430000Y-46390000D02*
X144840432Y-46390000D01*
X146584315Y-48350000D02*
X146615686Y-48350000D01*
X146600001Y-48365685D02*
X146618630Y-48384315D01*
X146037500Y-50400000D02*
X146037500Y-51702500D01*
X144430000Y-46390000D02*
X144430000Y-46630000D01*
X146618630Y-48384315D02*
X146618630Y-49297055D01*
%TO.N,SRB2*%
X148300000Y-57850000D02*
X148205001Y-57945001D01*
X151375000Y-60817590D02*
X151375000Y-61282410D01*
X144575001Y-49750000D02*
X144275000Y-50050001D01*
X145780000Y-55330000D02*
X148300000Y-57850000D01*
X145000000Y-53460000D02*
X145000000Y-53700000D01*
X145599999Y-49750000D02*
X145087500Y-49750000D01*
X145000000Y-53700000D02*
X145780000Y-54480000D01*
X143040000Y-46290000D02*
X143280000Y-46530000D01*
X151107410Y-61550000D02*
X150337500Y-61550000D01*
X145175000Y-50875000D02*
X145175000Y-51765000D01*
X151157410Y-60600000D02*
X151375000Y-60817590D01*
X151050000Y-60600000D02*
X151157410Y-60600000D01*
X148400000Y-57950000D02*
X151050000Y-60600000D01*
X143040000Y-45000000D02*
X143040000Y-46290000D01*
X144499568Y-50875000D02*
X145175000Y-50875000D01*
X145087500Y-49750000D02*
X144575001Y-49750000D01*
X146218630Y-49131369D02*
X145599999Y-49750000D01*
X144275000Y-50650432D02*
X144499568Y-50875000D01*
X141890000Y-43850000D02*
X143040000Y-45000000D01*
X145175000Y-51765000D02*
X145000000Y-51940000D01*
X143953654Y-47540000D02*
X145208629Y-47540000D01*
X145780000Y-54480000D02*
X145780000Y-55330000D01*
X145208629Y-47540000D02*
X146218630Y-48550000D01*
X146218630Y-48550000D02*
X146218630Y-49131369D01*
X145000000Y-51940000D02*
X145000000Y-53460000D01*
X148205001Y-57945001D02*
X148205001Y-58356471D01*
X144275000Y-50050001D02*
X144275000Y-50650432D01*
X143280000Y-46866346D02*
X143953654Y-47540000D01*
X151375000Y-61282410D02*
X151107410Y-61550000D01*
X148300000Y-57850000D02*
X148400000Y-57950000D01*
X143280000Y-46530000D02*
X143280000Y-46866346D01*
%TO.N,SRB1*%
X146568750Y-57281250D02*
X146568750Y-57568750D01*
X142400000Y-50450432D02*
X142400000Y-50200000D01*
X142850000Y-49750000D02*
X143412500Y-49750000D01*
X143550000Y-51290000D02*
X143239568Y-51290000D01*
X146568750Y-57568750D02*
X150050000Y-61050000D01*
X142400000Y-50200000D02*
X142850000Y-49750000D01*
X146568750Y-57081250D02*
X146625735Y-57024265D01*
X146568750Y-57281250D02*
X146568750Y-57081250D01*
X143924999Y-49750000D02*
X143412500Y-49750000D01*
X144200000Y-53460000D02*
X144200000Y-54912500D01*
X144225000Y-49449999D02*
X143924999Y-49750000D01*
X150050000Y-61050000D02*
X150337500Y-61050000D01*
X143550000Y-51290000D02*
X144200000Y-51940000D01*
X141890000Y-46390000D02*
X144225000Y-48725000D01*
X144200000Y-51940000D02*
X144200000Y-53460000D01*
X144225000Y-48725000D02*
X144225000Y-49449999D01*
X144200000Y-54912500D02*
X146568750Y-57281250D01*
X143239568Y-51290000D02*
X142400000Y-50450432D01*
%TO.N,AVSS*%
X169125000Y-68212500D02*
X165200000Y-64287500D01*
X169287500Y-75725000D02*
X171787500Y-75725000D01*
X163300000Y-64050000D02*
X161662500Y-64050000D01*
X140475000Y-68125000D02*
X142100000Y-66500000D01*
X144462500Y-64550000D02*
X144881250Y-64131250D01*
X151375000Y-64317590D02*
X151375000Y-64782410D01*
X151375000Y-64782410D02*
X151107410Y-65050000D01*
X146537500Y-68450000D02*
X147312500Y-69225000D01*
X159450000Y-65050000D02*
X159950000Y-64550000D01*
X144350000Y-64550000D02*
X146587500Y-64550000D01*
X139350000Y-46390000D02*
X141680000Y-48720000D01*
X163537500Y-64287500D02*
X163300000Y-64050000D01*
X150337500Y-62550000D02*
X152550000Y-62550000D01*
X141680000Y-48720000D02*
X142060000Y-49100000D01*
X163600000Y-64287500D02*
X163537500Y-64287500D01*
X146537500Y-68000000D02*
X145037500Y-66500000D01*
X151107410Y-64050000D02*
X150337500Y-64050000D01*
X147312500Y-69225000D02*
X149662500Y-69225000D01*
X159950000Y-64550000D02*
X161662500Y-64550000D01*
X149300000Y-61837500D02*
X149300000Y-62282410D01*
X148450000Y-60987500D02*
X146425000Y-60987500D01*
X149300000Y-62282410D02*
X149567590Y-62550000D01*
X169125000Y-72325000D02*
X169125000Y-68212500D01*
X146425000Y-60987500D02*
X144712500Y-62700000D01*
X168275000Y-73175000D02*
X169125000Y-72325000D01*
X148450000Y-60987500D02*
X149300000Y-61837500D01*
X140475000Y-68125000D02*
X140475000Y-67625000D01*
X142400000Y-66500000D02*
X144350000Y-64550000D01*
X163600000Y-64287500D02*
X161925000Y-64287500D01*
X161925000Y-64287500D02*
X161662500Y-64550000D01*
X142100000Y-66500000D02*
X142400000Y-66500000D01*
X151107410Y-65050000D02*
X150337500Y-65050000D01*
X141680000Y-55800000D02*
X144712500Y-58832500D01*
X171787500Y-75725000D02*
X171787500Y-74075000D01*
X160826905Y-66550000D02*
X159450000Y-65173095D01*
X144712500Y-63962500D02*
X144881250Y-64131250D01*
X159450000Y-65173095D02*
X159450000Y-65050000D01*
X152846295Y-62846295D02*
X151375000Y-64317590D01*
X165200000Y-64287500D02*
X163600000Y-64287500D01*
X144350000Y-64550000D02*
X144462500Y-64550000D01*
X146537500Y-68450000D02*
X146537500Y-68000000D01*
X144712500Y-58832500D02*
X144712500Y-62700000D01*
X159450000Y-65050000D02*
X159450000Y-64750000D01*
X139350000Y-43850000D02*
X139350000Y-46390000D01*
X168275000Y-76737500D02*
X168275000Y-73175000D01*
X159450000Y-64750000D02*
X160150000Y-64050000D01*
X161662500Y-66550000D02*
X160826905Y-66550000D01*
X151107410Y-64050000D02*
X151375000Y-64317590D01*
X142400000Y-66500000D02*
X145037500Y-66500000D01*
X140475000Y-67625000D02*
X140050000Y-67200000D01*
X152550000Y-62550000D02*
X152846295Y-62846295D01*
X141680000Y-55800000D02*
X141680000Y-48720000D01*
X149662500Y-69225000D02*
X150337500Y-68550000D01*
X142060000Y-49100000D02*
X143412500Y-49100000D01*
X144712500Y-62700000D02*
X144712500Y-63962500D01*
X149567590Y-62550000D02*
X150337500Y-62550000D01*
X160150000Y-64050000D02*
X161662500Y-64050000D01*
X168275000Y-76737500D02*
X169287500Y-75725000D01*
%TO.N,PMOD_MOSI*%
X143240735Y-78479265D02*
X141304265Y-78479265D01*
X136925000Y-89450000D02*
X136925000Y-92350000D01*
X137762500Y-97072500D02*
X137762500Y-93187500D01*
X147200000Y-74520000D02*
X143240735Y-78479265D01*
X136925000Y-92350000D02*
X137762500Y-93187500D01*
X138490000Y-97800000D02*
X137762500Y-97072500D01*
%TO.N,ADS_DIN*%
X137762500Y-91362500D02*
X137762500Y-87187500D01*
X137762500Y-87187500D02*
X137350000Y-86775000D01*
X152750000Y-71232410D02*
X152182410Y-71800000D01*
X152182410Y-71800000D02*
X150550000Y-71800000D01*
X150550000Y-71800000D02*
X149650000Y-70900000D01*
X152750000Y-70462500D02*
X152750000Y-71232410D01*
%TO.N,ADS_CS*%
X156726472Y-72525000D02*
X156526472Y-72325000D01*
X144912500Y-90487500D02*
X141025000Y-86600000D01*
X156526472Y-72325000D02*
X156276904Y-72325000D01*
X155858098Y-71906194D02*
X155731194Y-71906194D01*
X155250000Y-71425000D02*
X155250000Y-70462500D01*
X139525000Y-85100000D02*
X139525000Y-83600000D01*
X144912500Y-91362500D02*
X144912500Y-90487500D01*
X155731194Y-71906194D02*
X155250000Y-71425000D01*
X139525000Y-83600000D02*
X128550000Y-72625000D01*
X156276904Y-72325000D02*
X155858098Y-71906194D01*
X128550000Y-72625000D02*
X128550000Y-69725000D01*
%TO.N,DVDD*%
X160892590Y-68050000D02*
X159750000Y-69192590D01*
X150275000Y-93187500D02*
X158200000Y-93187500D01*
X174787500Y-78950000D02*
X173400000Y-78950000D01*
X163012500Y-89550000D02*
X163012500Y-88987500D01*
X158200000Y-93187500D02*
X159975000Y-91412500D01*
X164700000Y-85912500D02*
X165650000Y-85912500D01*
X159750000Y-70462500D02*
X162440000Y-73152500D01*
X174787500Y-78087500D02*
X176037500Y-76837500D01*
X161662500Y-67050000D02*
X160892590Y-67050000D01*
X159975000Y-91412500D02*
X160612500Y-91412500D01*
X177937500Y-77190552D02*
X177328052Y-77800000D01*
X148487500Y-93187500D02*
X148687500Y-93187500D01*
X160892590Y-67050000D02*
X160625000Y-67317590D01*
X174787500Y-78950000D02*
X174787500Y-78087500D01*
X148687500Y-93187500D02*
X148775000Y-93275000D01*
X173400000Y-78950000D02*
X173350000Y-78900000D01*
X176037500Y-77499999D02*
X176037500Y-76837500D01*
X159750000Y-69192590D02*
X159750000Y-70462500D01*
X161662500Y-68050000D02*
X160892590Y-68050000D01*
X162440000Y-73152500D02*
X162440000Y-74520000D01*
X160625000Y-67317590D02*
X160625000Y-67782410D01*
X162437500Y-88175000D02*
X162200000Y-88175000D01*
X160612500Y-91412500D02*
X161175000Y-91975000D01*
X167325000Y-87950000D02*
X165650000Y-86275000D01*
X177328052Y-77800000D02*
X176337501Y-77800000D01*
X177937500Y-76837500D02*
X177937500Y-77190552D01*
X168825000Y-87950000D02*
X167325000Y-87950000D01*
X164700000Y-85912500D02*
X162437500Y-88175000D01*
X163012500Y-88987500D02*
X162200000Y-88175000D01*
X165650000Y-86275000D02*
X165650000Y-85912500D01*
X160625000Y-67782410D02*
X160892590Y-68050000D01*
X176337501Y-77800000D02*
X176037500Y-77499999D01*
%TO.N,ADS_RESET*%
X148234203Y-72734203D02*
X152379577Y-72734203D01*
X138300000Y-83200000D02*
X130125000Y-75025000D01*
X150275000Y-91362500D02*
X149237500Y-92400000D01*
X140125000Y-77700000D02*
X140650000Y-78225000D01*
X130125000Y-75025000D02*
X128550000Y-75025000D01*
X140710000Y-78225000D02*
X143510000Y-75425000D01*
X152379577Y-72734203D02*
X153750000Y-71363780D01*
X143125000Y-89600000D02*
X140025000Y-86500000D01*
X147372562Y-71872562D02*
X148234203Y-72734203D01*
X138300000Y-84875000D02*
X138300000Y-83200000D01*
X143510000Y-75425000D02*
X143510000Y-74043654D01*
X140650000Y-78225000D02*
X140710000Y-78225000D01*
X143125000Y-91362500D02*
X143125000Y-89600000D01*
X149237500Y-92400000D02*
X144162500Y-92400000D01*
X144162500Y-92400000D02*
X143125000Y-91362500D01*
X145681092Y-71872562D02*
X147372562Y-71872562D01*
X153750000Y-71363780D02*
X153750000Y-70462500D01*
X143510000Y-74043654D02*
X145681092Y-71872562D01*
%TO.N,BIAS_DRV*%
X163700000Y-58270000D02*
X164600000Y-57370000D01*
X165500000Y-59937500D02*
X163937500Y-59937500D01*
X163700000Y-59700000D02*
X163700000Y-58270000D01*
X163937500Y-59937500D02*
X163700000Y-59700000D01*
X163600000Y-53460000D02*
X163600000Y-56370000D01*
X163600000Y-56370000D02*
X164600000Y-57370000D01*
X165500000Y-59937500D02*
X165500000Y-59900000D01*
%TO.N,IN8N*%
X162285000Y-53745000D02*
X162285000Y-54140000D01*
X162000000Y-58750000D02*
X161612500Y-59137500D01*
X162000000Y-53460000D02*
X162285000Y-53745000D01*
X162285000Y-54140000D02*
X162300000Y-54140000D01*
X162000000Y-58050000D02*
X162150000Y-58050000D01*
X161612500Y-59137500D02*
X159750000Y-59137500D01*
X162300000Y-54140000D02*
X162300000Y-57750000D01*
X162000000Y-58050000D02*
X162000000Y-58750000D01*
X162150000Y-58050000D02*
X162300000Y-58200000D01*
X162300000Y-57750000D02*
X162000000Y-58050000D01*
%TO.N,IN8P*%
X161600000Y-56350000D02*
X161800000Y-56550000D01*
X159300000Y-58317590D02*
X159300000Y-58650000D01*
X161485000Y-53745000D02*
X161485000Y-54140000D01*
X161600000Y-55950000D02*
X161700000Y-56050000D01*
X161600000Y-57884315D02*
X161600000Y-58100000D01*
X161600000Y-58100000D02*
X159517590Y-58100000D01*
X161600000Y-54140000D02*
X161600000Y-55950000D01*
X159517590Y-58100000D02*
X159300000Y-58317590D01*
X159300000Y-58650000D02*
X159250000Y-58700000D01*
X161700000Y-56050000D02*
X161700000Y-56600000D01*
X161485000Y-54140000D02*
X161600000Y-54140000D01*
X161800000Y-57684315D02*
X161600000Y-57884315D01*
X161600000Y-55950000D02*
X161600000Y-56350000D01*
X159250000Y-58700000D02*
X159250000Y-59137500D01*
X161800000Y-56550000D02*
X161800000Y-57684315D01*
X161200000Y-53460000D02*
X161485000Y-53745000D01*
%TO.N,VIN_SYS*%
X164112500Y-90675000D02*
X167850000Y-90675000D01*
X167850000Y-90675000D02*
X168850000Y-91675000D01*
X163037500Y-91750000D02*
X162587500Y-91750000D01*
X163037500Y-91750000D02*
X164112500Y-90675000D01*
X161540000Y-97800000D02*
X163037500Y-96302500D01*
X163037500Y-96302500D02*
X163037500Y-91750000D01*
X162587500Y-91750000D02*
X159975000Y-89137500D01*
%TO.N,3V ENABLE*%
X158075000Y-89137500D02*
X154287500Y-89137500D01*
X154287500Y-89137500D02*
X154275000Y-89150000D01*
%TO.N,PMOD_SCLK*%
X134175000Y-93200000D02*
X134187500Y-93187500D01*
X135950000Y-97400000D02*
X134175000Y-95625000D01*
X135950000Y-97800000D02*
X135950000Y-97400000D01*
X154820000Y-74520000D02*
X154820000Y-77714480D01*
X154820000Y-77714480D02*
X148603926Y-83930554D01*
X134175000Y-95625000D02*
X134175000Y-93200000D01*
%TO.N,PMOD_MISO*%
X141325000Y-97505000D02*
X141325000Y-93200000D01*
X141325000Y-93200000D02*
X141337500Y-93187500D01*
X157360000Y-76116470D02*
X149388235Y-84088235D01*
X157360000Y-74520000D02*
X157360000Y-76116470D01*
X141030000Y-97800000D02*
X141325000Y-97505000D01*
%TO.N,PMOD_CS*%
X143570000Y-97800000D02*
X144125000Y-97245000D01*
X144125000Y-97245000D02*
X144125000Y-93975000D01*
X144125000Y-93975000D02*
X144912500Y-93187500D01*
%TO.N,PMOD_3V3*%
X158937500Y-97737500D02*
X159000000Y-97800000D01*
X148650000Y-97800000D02*
X152362500Y-97800000D01*
X154375000Y-97712500D02*
X154400000Y-97737500D01*
X152362500Y-97800000D02*
X152450000Y-97712500D01*
X154400000Y-97737500D02*
X158937500Y-97737500D01*
X152450000Y-97712500D02*
X154375000Y-97712500D01*
X148650000Y-100340000D02*
X148650000Y-97800000D01*
%TO.N,PMOD_DRDY*%
X137100000Y-94312500D02*
X135975000Y-93187500D01*
X135950000Y-100340000D02*
X137100000Y-99190000D01*
X137100000Y-99190000D02*
X137100000Y-94312500D01*
%TO.N,PMOD_START*%
X139640000Y-93277500D02*
X139550000Y-93187500D01*
X139640000Y-99190000D02*
X139640000Y-93277500D01*
X138490000Y-100340000D02*
X139640000Y-99190000D01*
%TO.N,PMOD_RESET*%
X154196897Y-77771897D02*
X153914054Y-77771897D01*
X154196897Y-76436897D02*
X154196897Y-77771897D01*
X142180000Y-94132500D02*
X143125000Y-93187500D01*
X153914054Y-77771897D02*
X147807612Y-83878339D01*
X142180000Y-99190000D02*
X142180000Y-94132500D01*
X147807612Y-83878339D02*
X147807612Y-84007263D01*
X142300000Y-92362500D02*
X143125000Y-93187500D01*
X152280000Y-74520000D02*
X154196897Y-76436897D01*
X142300000Y-90050000D02*
X142300000Y-92362500D01*
X141030000Y-100340000D02*
X142180000Y-99190000D01*
%TO.N,PMOD_CS2*%
X151050000Y-91841722D02*
X151050000Y-90883278D01*
X144720000Y-97320000D02*
X144725000Y-97315000D01*
X144720000Y-99190000D02*
X144720000Y-97320000D01*
X148350000Y-74996346D02*
X148350000Y-74043654D01*
X148954222Y-93975000D02*
X149403186Y-93526036D01*
X145810000Y-73370000D02*
X144660000Y-74520000D01*
X143801471Y-85375000D02*
X143450000Y-85023529D01*
X150053186Y-92150000D02*
X150741722Y-92150000D01*
X144725000Y-95100000D02*
X146637500Y-93187500D01*
X149403186Y-92800000D02*
X150053186Y-92150000D01*
X151050000Y-90883278D02*
X145541722Y-85375000D01*
X147487500Y-93975000D02*
X148954222Y-93975000D01*
X144725000Y-97315000D02*
X144725000Y-95100000D01*
X149403186Y-93526036D02*
X149403186Y-92800000D01*
X143450000Y-79896346D02*
X148350000Y-74996346D01*
X146700000Y-93187500D02*
X147487500Y-93975000D01*
X148350000Y-74043654D02*
X147676346Y-73370000D01*
X147676346Y-73370000D02*
X145810000Y-73370000D01*
X143450000Y-85023529D02*
X143450000Y-79896346D01*
X145541722Y-85375000D02*
X143801471Y-85375000D01*
X143570000Y-100340000D02*
X144720000Y-99190000D01*
X146637500Y-93187500D02*
X146700000Y-93187500D01*
X150741722Y-92150000D02*
X151050000Y-91841722D01*
%TO.N,BIAS_INV*%
X165275000Y-62600000D02*
X165375000Y-62700000D01*
X161712500Y-62600000D02*
X165275000Y-62600000D01*
X161662500Y-62550000D02*
X161712500Y-62600000D01*
%TO.N,ADS_CS2*%
X141087500Y-85750000D02*
X128500000Y-85750000D01*
X146700000Y-91362500D02*
X141087500Y-85750000D01*
%TO.N,Net-(U1-VREFP)*%
X149567590Y-64550000D02*
X150337500Y-64550000D01*
X147766722Y-62700000D02*
X149300000Y-64233278D01*
X146787500Y-62700000D02*
X147766722Y-62700000D01*
X148437500Y-62700000D02*
X148450000Y-62712500D01*
X149300000Y-64282410D02*
X149567590Y-64550000D01*
X149300000Y-64233278D02*
X149300000Y-64282410D01*
X146787500Y-62700000D02*
X148437500Y-62700000D01*
%TO.N,ADS_START*%
X139550000Y-91362500D02*
X139550000Y-87799745D01*
X154704902Y-71404412D02*
X154750000Y-71359314D01*
X132975000Y-69550000D02*
X133300000Y-69875000D01*
X154750000Y-71359314D02*
X154750000Y-70462500D01*
X139025000Y-80225000D02*
X139025000Y-75600000D01*
X154704902Y-71750455D02*
X154704902Y-71404412D01*
X155218090Y-72263643D02*
X154704902Y-71750455D01*
X139550000Y-87799745D02*
X138437440Y-86687185D01*
X139025000Y-75600000D02*
X132975000Y-69550000D01*
%TO.N,ADS_SCLK*%
X157550000Y-71925000D02*
X156442590Y-71925000D01*
X134200000Y-90050000D02*
X134200000Y-91350000D01*
X126050000Y-66925000D02*
X128550000Y-64425000D01*
X126050000Y-91350000D02*
X126050000Y-66925000D01*
X156442590Y-71925000D02*
X155750000Y-71232410D01*
X134187500Y-91362500D02*
X134175000Y-91350000D01*
X134175000Y-91350000D02*
X126050000Y-91350000D01*
X155750000Y-71232410D02*
X155750000Y-70462500D01*
X134200000Y-91350000D02*
X134187500Y-91362500D01*
X157900000Y-72275000D02*
X157550000Y-71925000D01*
%TO.N,ADS_CLK_OUT*%
X154250000Y-70462500D02*
X154250000Y-71712308D01*
X154300000Y-70512500D02*
X154250000Y-70462500D01*
X154250000Y-71712308D02*
X153887308Y-72075000D01*
%TO.N,ADS_DOUT*%
X157300000Y-71282410D02*
X157300000Y-70462500D01*
X149550000Y-84775000D02*
X158650000Y-75675000D01*
X158650000Y-71750000D02*
X158400000Y-71500000D01*
X141337500Y-88729682D02*
X139235204Y-86627386D01*
X158400000Y-71500000D02*
X158017590Y-71500000D01*
X158017590Y-71500000D02*
X158000000Y-71482410D01*
X157982410Y-71500000D02*
X157517590Y-71500000D01*
X144050000Y-84775000D02*
X149550000Y-84775000D01*
X157517590Y-71500000D02*
X157300000Y-71282410D01*
X158000000Y-71482410D02*
X157982410Y-71500000D01*
X158650000Y-75675000D02*
X158650000Y-71750000D01*
X157300000Y-70462500D02*
X157250000Y-70462500D01*
X141337500Y-91362500D02*
X141337500Y-88729682D01*
%TO.N,-DVDD*%
X169212500Y-81400000D02*
X168487500Y-82125000D01*
X165650000Y-83284448D02*
X165650000Y-83637500D01*
X169212500Y-79025000D02*
X169225000Y-79012500D01*
X168487500Y-82125000D02*
X166809448Y-82125000D01*
X166809448Y-82125000D02*
X165650000Y-83284448D01*
X169212500Y-81400000D02*
X169212500Y-79025000D01*
X170175000Y-79012500D02*
X169225000Y-79012500D01*
X165650000Y-83637500D02*
X165650000Y-81962500D01*
X165650000Y-81962500D02*
X164787500Y-81100000D01*
%TO.N,Net-(U5-NR)*%
X169087500Y-77825000D02*
X166412500Y-77825000D01*
X170175000Y-76737500D02*
X169087500Y-77825000D01*
%TO.N,IN1N*%
X149871493Y-57420660D02*
X149817153Y-57475000D01*
X146600000Y-53460000D02*
X146600000Y-54350000D01*
X149725000Y-57475000D02*
X150350000Y-58100000D01*
X149919189Y-57420660D02*
X149871493Y-57420660D01*
X149817153Y-57475000D02*
X149725000Y-57475000D01*
X152482410Y-58100000D02*
X152750000Y-58367590D01*
X150350000Y-58100000D02*
X152482410Y-58100000D01*
X152750000Y-58367590D02*
X152750000Y-59137500D01*
X146600000Y-54350000D02*
X149725000Y-57475000D01*
X146600000Y-53460000D02*
X146600000Y-53650000D01*
%TO.N,IN1P*%
X145800000Y-53740000D02*
X146200000Y-54140000D01*
X146200000Y-55150000D02*
X147300000Y-56250000D01*
X150055001Y-58405001D02*
X150055001Y-58756471D01*
X147300000Y-56250000D02*
X147900000Y-56250000D01*
X150000000Y-58350000D02*
X150787500Y-59137500D01*
X145800000Y-53460000D02*
X145800000Y-53740000D01*
X146200000Y-54140000D02*
X146200000Y-55150000D01*
X150000000Y-58350000D02*
X150055001Y-58405001D01*
X147900000Y-56250000D02*
X150000000Y-58350000D01*
X150787500Y-59137500D02*
X152250000Y-59137500D01*
%TO.N,VIN_BAT*%
X180000000Y-94175000D02*
X176587500Y-94175000D01*
X169988478Y-94175000D02*
X166363478Y-97800000D01*
X176587500Y-94175000D02*
X169988478Y-94175000D01*
X166363478Y-97800000D02*
X164080000Y-97800000D01*
X181625000Y-92550000D02*
X180000000Y-94175000D01*
%TO.N,Net-(J5-Pin_1)*%
X170375000Y-99800000D02*
X174712500Y-95462500D01*
X174712500Y-95462500D02*
X174712500Y-95125000D01*
%TO.N,IN7N*%
X158800000Y-58317590D02*
X158800000Y-59087500D01*
X161200000Y-57700000D02*
X159351904Y-57700000D01*
X160060000Y-53460000D02*
X161200000Y-54600000D01*
X159351904Y-57700000D02*
X158900000Y-58151905D01*
X161200000Y-55050000D02*
X160750000Y-55500000D01*
X158700000Y-53460000D02*
X160060000Y-53460000D01*
X161200000Y-55050000D02*
X161200000Y-56251471D01*
X161200000Y-54600000D02*
X161200000Y-55050000D01*
X158800000Y-59087500D02*
X158750000Y-59137500D01*
X161200000Y-56251471D02*
X161100000Y-56351471D01*
X161100000Y-56351471D02*
X161100000Y-56848529D01*
X161100000Y-56848529D02*
X161200000Y-56948529D01*
X161200000Y-56948529D02*
X161200000Y-57700000D01*
X158900000Y-58217590D02*
X158800000Y-58317590D01*
X160750000Y-55500000D02*
X160750000Y-56220000D01*
X158900000Y-58151905D02*
X158900000Y-58217590D01*
%TO.N,IN7P*%
X160350000Y-55334315D02*
X160350000Y-55771471D01*
X160800000Y-54884314D02*
X160350000Y-55334315D01*
X158300000Y-58317590D02*
X158300000Y-59087500D01*
X160250049Y-56568579D02*
X159518628Y-57300000D01*
X158185000Y-54140000D02*
X159215000Y-54140000D01*
X158400000Y-58151905D02*
X158400000Y-58217590D01*
X159810000Y-53860000D02*
X160500000Y-54550000D01*
X160500000Y-54550000D02*
X160800000Y-54850000D01*
X159215000Y-54140000D02*
X159215000Y-53860000D01*
X160350000Y-55771471D02*
X160150000Y-55971471D01*
X160250066Y-54799934D02*
X159850039Y-54799934D01*
X158500000Y-57986220D02*
X158500000Y-58051904D01*
X157900000Y-53460000D02*
X158185000Y-53460000D01*
X160150000Y-56468529D02*
X160250049Y-56568579D01*
X158400000Y-58217590D02*
X158300000Y-58317590D01*
X160500000Y-54550000D02*
X160250066Y-54799934D01*
X160800000Y-54850000D02*
X160800000Y-54884314D01*
X160150000Y-55971471D02*
X160150000Y-56468529D01*
X159215000Y-53860000D02*
X159810000Y-53860000D01*
X159518628Y-57300000D02*
X159186218Y-57300001D01*
X158300000Y-59087500D02*
X158250000Y-59137500D01*
X159186218Y-57300001D02*
X158500000Y-57986220D01*
X158500000Y-58051904D02*
X158400000Y-58151905D01*
X158185000Y-53460000D02*
X158185000Y-54140000D01*
%TO.N,IN6N*%
X158000000Y-58051904D02*
X157900000Y-58151905D01*
X158019315Y-54540000D02*
X158740000Y-54540000D01*
X159352941Y-56900001D02*
X159020532Y-56900001D01*
X157100000Y-53460000D02*
X157385000Y-53460000D01*
X157785000Y-54140000D02*
X157785000Y-54305685D01*
X157385000Y-54140000D02*
X157785000Y-54140000D01*
X158740000Y-54540000D02*
X159877893Y-55677893D01*
X157800000Y-58317590D02*
X157800000Y-59087500D01*
X159750000Y-56502942D02*
X159352941Y-56900001D01*
X157900000Y-58217590D02*
X157800000Y-58317590D01*
X157800000Y-59087500D02*
X157750000Y-59137500D01*
X159877893Y-55677893D02*
X159750000Y-55805786D01*
X157785000Y-54305685D02*
X158019315Y-54540000D01*
X157385000Y-53460000D02*
X157385000Y-54140000D01*
X159750000Y-55805786D02*
X159750000Y-56502942D01*
X158100000Y-57820535D02*
X158100000Y-57886221D01*
X158000000Y-57986222D02*
X158000000Y-58051904D01*
X159020532Y-56900001D02*
X158100000Y-57820535D01*
X158100000Y-57886221D02*
X158000000Y-57986222D01*
X157900000Y-58151905D02*
X157900000Y-58217590D01*
X159352941Y-56900001D02*
X158447927Y-56900001D01*
X158447927Y-56900001D02*
X158347963Y-56800037D01*
%TO.N,IN6P*%
X157700000Y-57654850D02*
X157700000Y-57720537D01*
X157500000Y-58000000D02*
X157250000Y-58250000D01*
X157500000Y-57986222D02*
X157500000Y-58000000D01*
X156985000Y-54305685D02*
X157219315Y-54540000D01*
X156985000Y-54140000D02*
X156985000Y-54305685D01*
X158896456Y-56500001D02*
X158596492Y-56200037D01*
X158596492Y-56200037D02*
X158099434Y-56200037D01*
X159067157Y-55432843D02*
X159350000Y-55715686D01*
X157747963Y-56551508D02*
X157747963Y-57048566D01*
X158027123Y-57327726D02*
X157700000Y-57654850D01*
X157700000Y-57720537D02*
X157600000Y-57820539D01*
X159350000Y-55715686D02*
X159350000Y-56150000D01*
X156300000Y-53460000D02*
X156585000Y-53460000D01*
X157219315Y-54540000D02*
X157453630Y-54540000D01*
X159050000Y-55450000D02*
X158300000Y-55450000D01*
X157453630Y-54540000D02*
X157853630Y-54940000D01*
X158999999Y-56500001D02*
X158896456Y-56500001D01*
X157250000Y-58250000D02*
X157250000Y-59137500D01*
X156585000Y-53460000D02*
X156585000Y-54140000D01*
X158099434Y-56200037D02*
X157747963Y-56551508D01*
X157853630Y-54940000D02*
X158574314Y-54940000D01*
X157600000Y-57886221D02*
X157500000Y-57986222D01*
X159067157Y-55432843D02*
X159050000Y-55450000D01*
X156585000Y-54140000D02*
X156985000Y-54140000D01*
X157600000Y-57820539D02*
X157600000Y-57886221D01*
X157747963Y-57048566D02*
X158027123Y-57327726D01*
X158574314Y-54940000D02*
X159067157Y-55432843D01*
X159350000Y-56150000D02*
X158999999Y-56500001D01*
%TO.N,IN5N*%
X157287944Y-54940000D02*
X157473972Y-55126028D01*
X156850000Y-58267590D02*
X156800000Y-58317590D01*
X157473972Y-55126028D02*
X157687945Y-55340000D01*
X156185000Y-54305685D02*
X156419315Y-54540000D01*
X157300000Y-57554854D02*
X157199998Y-57654857D01*
X156850000Y-58084315D02*
X156850000Y-58267590D01*
X156419315Y-54540000D02*
X156653630Y-54540000D01*
X157199998Y-57720539D02*
X157100000Y-57820539D01*
X157199998Y-57654857D02*
X157199998Y-57720539D01*
X156800000Y-58317590D02*
X156800000Y-59087500D01*
X156800000Y-59087500D02*
X156750000Y-59137500D01*
X157867628Y-55866158D02*
X157347963Y-56385823D01*
X157100000Y-57834314D02*
X156850000Y-58084315D01*
X157050000Y-55550000D02*
X157050000Y-56300000D01*
X156653630Y-54540000D02*
X157053630Y-54940000D01*
X155785000Y-53460000D02*
X155785000Y-54140000D01*
X157347963Y-57214252D02*
X157461438Y-57327727D01*
X157700000Y-55340000D02*
X157700000Y-55698529D01*
X157473972Y-55126028D02*
X157050000Y-55550000D01*
X157687945Y-55340000D02*
X157700000Y-55340000D01*
X157461438Y-57327727D02*
X157300000Y-57489165D01*
X155785000Y-54140000D02*
X156185000Y-54140000D01*
X154650000Y-53460000D02*
X155785000Y-53460000D01*
X157100000Y-57820539D02*
X157100000Y-57834314D01*
X157300000Y-57489165D02*
X157300000Y-57554854D01*
X157053630Y-54940000D02*
X157287944Y-54940000D01*
X157700000Y-55698529D02*
X157867628Y-55866158D01*
X156185000Y-54140000D02*
X156185000Y-54305685D01*
X157347963Y-56385823D02*
X157347963Y-57214252D01*
%TO.N,IN5P*%
X154135000Y-54140000D02*
X155165000Y-54140000D01*
X155619315Y-54540000D02*
X155853629Y-54540000D01*
X156450001Y-58101904D02*
X156400000Y-58151905D01*
X155385000Y-54305685D02*
X155619315Y-54540000D01*
X153850000Y-53600000D02*
X154135000Y-53885000D01*
X156699998Y-57654857D02*
X156699998Y-57668631D01*
X156253630Y-54940000D02*
X156487944Y-54940000D01*
X155165000Y-54140000D02*
X155385000Y-54140000D01*
X156900000Y-57389171D02*
X156799998Y-57489174D01*
X153850000Y-53460000D02*
X153850000Y-53600000D01*
X156650000Y-55851472D02*
X156450000Y-56051471D01*
X156801471Y-56900000D02*
X156947963Y-56900000D01*
X156650000Y-55384315D02*
X156650000Y-55851472D01*
X156300000Y-59087500D02*
X156250000Y-59137500D01*
X156450000Y-57918630D02*
X156450001Y-58101904D01*
X156900000Y-57323480D02*
X156900000Y-57389171D01*
X156400000Y-58217590D02*
X156300000Y-58317590D01*
X156799998Y-57554856D02*
X156699998Y-57654857D01*
X156699998Y-57668631D02*
X156450000Y-57918630D01*
X156300000Y-58317590D02*
X156300000Y-59087500D01*
X156487944Y-54940000D02*
X156791129Y-55243185D01*
X156791129Y-55243185D02*
X156650000Y-55384315D01*
X155853629Y-54540000D02*
X156253630Y-54940000D01*
X156947963Y-57275516D02*
X156900000Y-57323480D01*
X156799998Y-57489174D02*
X156799998Y-57554856D01*
X156450000Y-56051471D02*
X156450000Y-56548529D01*
X156400000Y-58151905D02*
X156400000Y-58217590D01*
X155385000Y-54140000D02*
X155385000Y-54305685D01*
X156699998Y-57654857D02*
X156450346Y-57654857D01*
X156450000Y-56548529D02*
X156801471Y-56900000D01*
X154135000Y-53885000D02*
X154135000Y-54140000D01*
X156947963Y-56900000D02*
X156947963Y-57275516D01*
X156450346Y-57654857D02*
X156345202Y-57760001D01*
%TO.N,IN4N*%
X155650000Y-58167590D02*
X155800000Y-58317590D01*
X155800000Y-58317590D02*
X155800000Y-59087500D01*
X153335000Y-53835000D02*
X153335000Y-54140000D01*
X155650000Y-57800000D02*
X155700000Y-57850000D01*
X155292157Y-55357843D02*
X155292157Y-56490921D01*
X156050000Y-56850000D02*
X155650000Y-57250000D01*
X155700000Y-57950000D02*
X155650000Y-58000000D01*
X153735000Y-54305685D02*
X153969315Y-54540000D01*
X156050000Y-56115686D02*
X156050000Y-56850000D01*
X153050000Y-53460000D02*
X153050000Y-53550000D01*
X155700000Y-57850000D02*
X155700000Y-57950000D01*
X155650000Y-58000000D02*
X155650000Y-58167590D01*
X153969315Y-54540000D02*
X154474314Y-54540000D01*
X155650000Y-57250000D02*
X155650000Y-57800000D01*
X153735000Y-54140000D02*
X153735000Y-54305685D01*
X153335000Y-54140000D02*
X153735000Y-54140000D01*
X155292157Y-55357843D02*
X156050000Y-56115686D01*
X153050000Y-53550000D02*
X153335000Y-53835000D01*
X155292157Y-56490921D02*
X155755000Y-56953764D01*
X155800000Y-59087500D02*
X155750000Y-59137500D01*
X154474314Y-54540000D02*
X155292157Y-55357843D01*
%TO.N,IN4P*%
X154068137Y-55140000D02*
X154139645Y-55068492D01*
X153828013Y-55028013D02*
X153525000Y-54725000D01*
X155150000Y-58267590D02*
X155200000Y-58317590D01*
X152250000Y-54350000D02*
X153375000Y-55475000D01*
X154113798Y-55028013D02*
X153828013Y-55028013D01*
X155200000Y-58317590D02*
X155200000Y-59087500D01*
X155200000Y-59087500D02*
X155250000Y-59137500D01*
X154139645Y-55068492D02*
X154139645Y-55053860D01*
X154139645Y-55053860D02*
X154113798Y-55028013D01*
X152250000Y-53460000D02*
X152250000Y-54350000D01*
X153375000Y-54875000D02*
X153375000Y-55475000D01*
X153375000Y-55475000D02*
X155150000Y-57250001D01*
X155150000Y-57250001D02*
X155150000Y-58267590D01*
X153525000Y-54725000D02*
X153375000Y-54875000D01*
%TO.N,IN3N*%
X153339006Y-56110994D02*
X153339006Y-56411009D01*
X154750000Y-57415686D02*
X154750000Y-59137500D01*
X150550000Y-53410000D02*
X150810000Y-53410000D01*
X151850000Y-54450000D02*
X151850000Y-54515686D01*
X151850000Y-54515686D02*
X153392157Y-56057843D01*
X153392157Y-56057843D02*
X154750000Y-57415686D01*
X150810000Y-53410000D02*
X151850000Y-54450000D01*
X153392157Y-56057843D02*
X153339006Y-56110994D01*
%TO.N,IN3P*%
X153264734Y-57185266D02*
X154250000Y-58170532D01*
X154250000Y-58170532D02*
X154250000Y-59137500D01*
X149750000Y-53410000D02*
X149750000Y-53670532D01*
X149750000Y-53670532D02*
X153264734Y-57185266D01*
X153649930Y-57164146D02*
X153285854Y-57164146D01*
X154142892Y-57657108D02*
X153649930Y-57164146D01*
X153285854Y-57164146D02*
X153264734Y-57185266D01*
%TO.N,IN2N*%
X151781891Y-56268109D02*
X151554998Y-56495002D01*
X151554998Y-56495002D02*
X151554998Y-57000000D01*
X149603782Y-54090000D02*
X151781891Y-56268109D01*
X149235000Y-53721218D02*
X149235000Y-54090000D01*
X149235000Y-54090000D02*
X149603782Y-54090000D01*
X151781891Y-56268109D02*
X153750000Y-58236218D01*
X148950000Y-53436218D02*
X149235000Y-53721218D01*
X148950000Y-53410000D02*
X148950000Y-53436218D01*
X153750000Y-58236218D02*
X153750000Y-59137500D01*
%TO.N,IN2P*%
X149925000Y-56275000D02*
X150288046Y-56638046D01*
X149200000Y-54600000D02*
X149200000Y-55450000D01*
X148435000Y-53835000D02*
X148435000Y-54090000D01*
X150654107Y-56989517D02*
X150654107Y-57004107D01*
X150050000Y-56150000D02*
X150050000Y-55550000D01*
X148150000Y-53550000D02*
X148435000Y-53835000D01*
X152648096Y-57700000D02*
X153250000Y-58301904D01*
X149925000Y-56275000D02*
X150050000Y-56150000D01*
X149200000Y-55450000D02*
X149700000Y-55950000D01*
X149700000Y-56050000D02*
X149925000Y-56275000D01*
X149069315Y-54490000D02*
X149090000Y-54490000D01*
X148690000Y-54090000D02*
X148835000Y-54235000D01*
X148835000Y-54255685D02*
X149069315Y-54490000D01*
X148835000Y-54235000D02*
X148835000Y-54255685D01*
X149700000Y-55950000D02*
X149700000Y-56050000D01*
X149090000Y-54490000D02*
X149200000Y-54600000D01*
X148150000Y-53410000D02*
X148150000Y-53550000D01*
X153250000Y-58301904D02*
X153250000Y-59137500D01*
X150654107Y-57004107D02*
X151350000Y-57700000D01*
X150302636Y-56638046D02*
X150654107Y-56989517D01*
X151350000Y-57700000D02*
X152648096Y-57700000D01*
X150288046Y-56638046D02*
X150302636Y-56638046D01*
X148435000Y-54090000D02*
X148690000Y-54090000D01*
%TO.N,Net-(U1-VCAP4)*%
X148312500Y-64550000D02*
X149312500Y-65550000D01*
X149312500Y-65550000D02*
X150337500Y-65550000D01*
%TO.N,Net-(U1-VCAP1)*%
X150287500Y-66500000D02*
X150337500Y-66550000D01*
X148162500Y-66500000D02*
X150287500Y-66500000D01*
%TO.N,Net-(U1-VCAP2)*%
X149162500Y-67550000D02*
X150337500Y-67550000D01*
X148262500Y-68450000D02*
X149162500Y-67550000D01*
%TO.N,ADS_PWDN*%
X153200000Y-70512500D02*
X153250000Y-70462500D01*
X139902377Y-79893425D02*
X139902377Y-80672623D01*
X138787500Y-80987500D02*
X132975000Y-75175000D01*
X153250000Y-71298095D02*
X152348095Y-72200000D01*
X139587500Y-80987500D02*
X138787500Y-80987500D01*
X148487500Y-91362500D02*
X148487500Y-90687500D01*
X153250000Y-70462500D02*
X153250000Y-71298095D01*
X152348095Y-72200000D02*
X149947794Y-72200000D01*
X148487500Y-90687500D02*
X138787500Y-80987500D01*
X139902377Y-80672623D02*
X139587500Y-80987500D01*
X149947794Y-72200000D02*
X149411380Y-71663586D01*
%TO.N,ADS_DRDY*%
X161050000Y-73032410D02*
X159250000Y-71232410D01*
X161050000Y-76100000D02*
X161050000Y-73032410D01*
X159250000Y-71232410D02*
X159250000Y-70462500D01*
X135975000Y-91362500D02*
X135975000Y-86875000D01*
X151325000Y-85825000D02*
X161050000Y-76100000D01*
%TO.N,Net-(U1-VCAP3)*%
X163137500Y-65550000D02*
X161662500Y-65550000D01*
X165200000Y-66012500D02*
X163600000Y-66012500D01*
X163600000Y-66012500D02*
X163137500Y-65550000D01*
%TO.N,Net-(U1-BIASIN)*%
X163700000Y-61700000D02*
X162012500Y-61700000D01*
X163700000Y-61700000D02*
X161812500Y-61700000D01*
X162012500Y-61700000D02*
X161662500Y-62050000D01*
X165500000Y-61662500D02*
X163737500Y-61662500D01*
X163737500Y-61662500D02*
X163700000Y-61700000D01*
X161812500Y-61700000D02*
X161662500Y-61550000D01*
%TO.N,Net-(U3-CAP+)*%
X167025000Y-85487500D02*
X171200000Y-85487500D01*
X166600000Y-85912500D02*
X167025000Y-85487500D01*
%TO.N,Net-(U3-CAP-)*%
X164700000Y-84299999D02*
X165000001Y-84600000D01*
X170012500Y-84600000D02*
X171200000Y-83412500D01*
X165000001Y-84600000D02*
X170012500Y-84600000D01*
X164700000Y-83637500D02*
X164700000Y-84299999D01*
%TD*%
M02*
