%TF.GenerationSoftware,KiCad,Pcbnew,10.0.1*%
%TF.CreationDate,2026-09-05T18:15:58+09:00*%
%TF.ProjectId,eeg-frontend,6565672d-6672-46f6-9e74-656e642e6b69,rev?*%
%TF.SameCoordinates,Original*%
%TF.FileFunction,Soldermask,Bot*%
%TF.FilePolarity,Negative*%
%FSLAX46Y46*%
G04 Gerber Fmt 4.6, Leading zero omitted, Abs format (unit mm)*
G04 Created by KiCad (PCBNEW 10.0.1) date 2026-09-05 18:15:58*
%MOMM*%
%LPD*%
G01*
G04 APERTURE LIST*
G04 Aperture macros list*
%AMRoundRect*
0 Rectangle with rounded corners*
0 $1 Rounding radius*
0 $2 $3 $4 $5 $6 $7 $8 $9 X,Y pos of 4 corners*
0 Add a 4 corners polygon primitive as box body*
4,1,4,$2,$3,$4,$5,$6,$7,$8,$9,$2,$3,0*
0 Add four circle primitives for the rounded corners*
1,1,$1+$1,$2,$3*
1,1,$1+$1,$4,$5*
1,1,$1+$1,$6,$7*
1,1,$1+$1,$8,$9*
0 Add four rect primitives between the rounded corners*
20,1,$1+$1,$2,$3,$4,$5,0*
20,1,$1+$1,$4,$5,$6,$7,0*
20,1,$1+$1,$6,$7,$8,$9,0*
20,1,$1+$1,$8,$9,$2,$3,0*%
G04 Aperture macros list end*
%ADD10R,1.700000X1.700000*%
%ADD11C,1.700000*%
%ADD12C,2.000000*%
%ADD13C,3.200000*%
%ADD14RoundRect,0.250000X-0.350000X-0.625000X0.350000X-0.625000X0.350000X0.625000X-0.350000X0.625000X0*%
%ADD15O,1.200000X1.750000*%
%ADD16R,0.890000X0.460000*%
G04 APERTURE END LIST*
D10*
%TO.C,J1*%
X169830000Y-43850000D03*
D11*
X169830000Y-46390000D03*
X167290000Y-43850000D03*
X167290000Y-46390000D03*
X164750000Y-43850000D03*
X164750000Y-46390000D03*
X162210000Y-43850000D03*
X162210000Y-46390000D03*
X159670000Y-43850000D03*
X159670000Y-46390000D03*
X157130000Y-43850000D03*
X157130000Y-46390000D03*
X154590000Y-43850000D03*
X154590000Y-46390000D03*
X152050000Y-43850000D03*
X152050000Y-46390000D03*
X149510000Y-43850000D03*
X149510000Y-46390000D03*
X146970000Y-43850000D03*
X146970000Y-46390000D03*
X144430000Y-43850000D03*
X144430000Y-46390000D03*
X141890000Y-43850000D03*
X141890000Y-46390000D03*
X139350000Y-43850000D03*
X139350000Y-46390000D03*
%TD*%
D12*
%TO.C,TP19*%
X128550000Y-69725000D03*
%TD*%
D10*
%TO.C,J2*%
X135950000Y-97800000D03*
D11*
X138490000Y-97800000D03*
X141030000Y-97800000D03*
X143570000Y-97800000D03*
X146110000Y-97800000D03*
X148650000Y-97800000D03*
X135950000Y-100340000D03*
X138490000Y-100340000D03*
X141030000Y-100340000D03*
X143570000Y-100340000D03*
X146110000Y-100340000D03*
X148650000Y-100340000D03*
%TD*%
D10*
%TO.C,J4*%
X141050000Y-74520000D03*
D11*
X141050000Y-71980000D03*
%TD*%
D12*
%TO.C,TP18*%
X132975000Y-64600000D03*
%TD*%
%TO.C,TP25*%
X128500000Y-85750000D03*
%TD*%
%TO.C,TP20*%
X132975000Y-69550000D03*
%TD*%
D13*
%TO.C,REF\u002A\u002A*%
X180000000Y-101000000D03*
%TD*%
D12*
%TO.C,TP23*%
X128550000Y-80325000D03*
%TD*%
D10*
%TO.C,J3*%
X162440000Y-74520000D03*
D11*
X159900000Y-74520000D03*
X157360000Y-74520000D03*
X154820000Y-74520000D03*
X152280000Y-74520000D03*
X149740000Y-74520000D03*
X147200000Y-74520000D03*
X144660000Y-74520000D03*
%TD*%
D12*
%TO.C,TP21*%
X132975000Y-75175000D03*
%TD*%
%TO.C,TP17*%
X128550000Y-64425000D03*
%TD*%
D10*
%TO.C,JP1*%
X159000000Y-97800000D03*
D11*
X161540000Y-97800000D03*
X164080000Y-97800000D03*
%TD*%
D13*
%TO.C,REF\u002A\u002A*%
X180000000Y-44000000D03*
%TD*%
D12*
%TO.C,TP22*%
X128550000Y-75025000D03*
%TD*%
D13*
%TO.C,REF\u002A\u002A*%
X129000000Y-101000000D03*
%TD*%
D14*
%TO.C,J5*%
X170375000Y-99800000D03*
D15*
X172375000Y-99800000D03*
%TD*%
D12*
%TO.C,TP24*%
X132975000Y-80275000D03*
%TD*%
D13*
%TO.C,REF\u002A\u002A*%
X129000000Y-44000000D03*
%TD*%
D16*
%TO.C,CN4*%
X152500000Y-55510000D03*
X152500000Y-56270000D03*
X152500000Y-57030000D03*
X152500000Y-57790000D03*
X150900000Y-57790000D03*
X150900000Y-57030000D03*
X150900000Y-56270000D03*
X150900000Y-55510000D03*
%TD*%
%TO.C,CN5*%
X156700000Y-55510000D03*
X156700000Y-56270000D03*
X156700000Y-57030000D03*
X156700000Y-57790000D03*
X155100000Y-57790000D03*
X155100000Y-57030000D03*
X155100000Y-56270000D03*
X155100000Y-55510000D03*
%TD*%
%TO.C,CN6*%
X160750000Y-55460000D03*
X160750000Y-56220000D03*
X160750000Y-56980000D03*
X160750000Y-57740000D03*
X159150000Y-57740000D03*
X159150000Y-56980000D03*
X159150000Y-56220000D03*
X159150000Y-55460000D03*
%TD*%
%TO.C,CN3*%
X149150000Y-56810000D03*
X149150000Y-57570000D03*
X149150000Y-58330000D03*
X149150000Y-59090000D03*
X147550000Y-59090000D03*
X147550000Y-58330000D03*
X147550000Y-57570000D03*
X147550000Y-56810000D03*
%TD*%
%TO.C,CN7*%
X164600000Y-56610000D03*
X164600000Y-57370000D03*
X164600000Y-58130000D03*
X164600000Y-58890000D03*
X163000000Y-58890000D03*
X163000000Y-58130000D03*
X163000000Y-57370000D03*
X163000000Y-56610000D03*
%TD*%
M02*
