%TF.GenerationSoftware,KiCad,Pcbnew,10.0.1*%
%TF.CreationDate,2026-09-05T18:15:58+09:00*%
%TF.ProjectId,eeg-frontend,6565672d-6672-46f6-9e74-656e642e6b69,rev?*%
%TF.SameCoordinates,Original*%
%TF.FileFunction,Paste,Bot*%
%TF.FilePolarity,Positive*%
%FSLAX46Y46*%
G04 Gerber Fmt 4.6, Leading zero omitted, Abs format (unit mm)*
G04 Created by KiCad (PCBNEW 10.0.1) date 2026-09-05 18:15:58*
%MOMM*%
%LPD*%
G01*
G04 APERTURE LIST*
%ADD10R,0.890000X0.460000*%
G04 APERTURE END LIST*
D10*
%TO.C,CN4*%
X152500000Y-55510000D03*
X152500000Y-56270000D03*
X152500000Y-57030000D03*
X152500000Y-57790000D03*
X150900000Y-57790000D03*
X150900000Y-57030000D03*
X150900000Y-56270000D03*
X150900000Y-55510000D03*
%TD*%
%TO.C,CN5*%
X156700000Y-55510000D03*
X156700000Y-56270000D03*
X156700000Y-57030000D03*
X156700000Y-57790000D03*
X155100000Y-57790000D03*
X155100000Y-57030000D03*
X155100000Y-56270000D03*
X155100000Y-55510000D03*
%TD*%
%TO.C,CN6*%
X160750000Y-55460000D03*
X160750000Y-56220000D03*
X160750000Y-56980000D03*
X160750000Y-57740000D03*
X159150000Y-57740000D03*
X159150000Y-56980000D03*
X159150000Y-56220000D03*
X159150000Y-55460000D03*
%TD*%
%TO.C,CN3*%
X149150000Y-56810000D03*
X149150000Y-57570000D03*
X149150000Y-58330000D03*
X149150000Y-59090000D03*
X147550000Y-59090000D03*
X147550000Y-58330000D03*
X147550000Y-57570000D03*
X147550000Y-56810000D03*
%TD*%
%TO.C,CN7*%
X164600000Y-56610000D03*
X164600000Y-57370000D03*
X164600000Y-58130000D03*
X164600000Y-58890000D03*
X163000000Y-58890000D03*
X163000000Y-58130000D03*
X163000000Y-57370000D03*
X163000000Y-56610000D03*
%TD*%
M02*
